<svg width="94" height="28" viewBox="0 0 94 28" fill="none" xmlns="http://www.w3.org/2000/svg">
<g clip-path="url(#clip0_14_54)">
<path d="M0 27.5349V1.11628H11.8886C17.0937 1.11628 20.728 3.22481 20.728 7.90698V8.27907C20.728 10.5116 19.5577 12.5581 17.3401 13.6744C20.1737 14.7287 21.806 16.9922 21.806 19.7829V20.124C21.806 24.6202 18.0485 27.5349 12.597 27.5349H0ZM6.0675 11.814H11.1186C13.4902 11.814 14.5682 10.9457 14.5682 9.05426V8.68217C14.5682 6.82171 13.3978 6.04651 11.1186 6.04651H6.0675V11.814ZM6.0675 22.5736H12.0118C14.3526 22.5736 15.6461 21.4574 15.6461 19.7209V19.3798C15.6461 17.5504 14.4758 16.5271 12.0734 16.5271H6.0983V22.6047L6.0675 22.5736Z" fill="black"/>
<path d="M30.4915 8.27907V27.5039H24.578V8.27907H30.4915Z" fill="black"/>
<path d="M39.8853 0V27.5349H33.9718V0H39.8853Z" fill="black"/>
<path d="M49.31 0V27.5349H43.3965V0H49.31Z" fill="black"/>
<path d="M52.1435 18.0775V17.7054C52.1435 11.7829 56.0858 7.81395 62.2149 7.81395C68.8676 7.81395 72.194 12.4961 71.7936 19.2558H58.0262C58.2726 22.2016 59.6586 23.5969 62.2149 23.5969C64.3093 23.5969 65.5105 22.5426 65.9109 21.3333H71.7012C70.7772 25.3953 67.3276 28 62.2457 28C55.9934 28 52.1743 24.093 52.1743 18.0775H52.1435ZM65.8493 15.814C65.6953 13.6124 64.5249 12.2171 62.1533 12.2171C59.7818 12.2171 58.4882 13.3333 58.0878 15.814H65.8493Z" fill="black"/>
<path d="M93.6612 7.90697H86.7005L80.6022 17.3643L87.4705 27.907H94L86.9469 17.6434L93.6612 7.90697Z" fill="black"/>
<path d="M72.194 7.81395H79.1238L85.2221 17.2713L78.3539 27.7829H71.8244L78.9083 17.5504L72.194 7.81395Z" fill="#490BF4"/>
<path d="M30.5839 0H24.4548V5.9845H30.5839V0Z" fill="black"/>
</g>
<defs>
<clipPath id="clip0_14_54">
<rect width="94" height="28" fill="white"/>
</clipPath>
</defs>
</svg>
