<svg version="1.1" id="Layer_1" xmlns="http://www.w3.org/2000/svg" xmlns:xlink="http://www.w3.org/1999/xlink" x="0px" y="0px"
	 width="100%" viewBox="0 0 1363 462" enable-background="new 0 0 1363 462" xml:space="preserve">


<path fill="#4FB85C" opacity="1.000000" stroke="none" 
	d="
M210.890732,326.961548 
	C210.465210,327.669373 210.039703,328.377197 209.360611,329.653320 
	C208.765182,331.477142 208.423355,332.732635 207.907532,334.298462 
	C202.141373,342.068237 196.549194,349.527679 190.957031,356.987152 
	C190.300125,357.425140 189.643188,357.863129 188.526123,358.644226 
	C186.000717,360.558960 183.935455,362.130585 181.870178,363.702209 
	C181.176132,364.165283 180.482086,364.628357 179.360718,365.417114 
	C178.437393,365.800262 177.878967,365.728516 177.454407,365.933746 
	C159.720810,374.506805 141.546295,374.825531 123.028458,368.891846 
	C122.541618,368.609650 122.054787,368.327454 121.018738,367.823242 
	C115.490707,364.631165 110.511887,361.661072 105.533058,358.690979 
	C104.291245,357.417847 103.049431,356.144745 101.335007,354.494354 
	C98.944206,352.060608 97.026024,350.004120 95.107834,347.947632 
	C94.076668,346.508514 93.045509,345.069366 91.677086,343.148743 
	C89.057457,338.043518 86.775078,333.419739 84.492706,328.795990 
	C84.401474,328.375641 84.310249,327.955292 84.084618,326.867920 
	C83.034180,317.490906 82.118134,308.780914 81.202087,300.070923 
	C81.417816,299.250092 81.633545,298.429291 81.930817,296.904053 
	C85.178680,287.669617 88.345001,279.139526 91.511307,270.609467 
	C92.327431,269.641785 93.143562,268.674103 94.340607,267.238281 
	C101.614937,257.484039 110.945839,251.274872 120.987419,245.962830 
	C121.547440,245.860306 122.107468,245.757797 123.268387,245.416061 
	C132.901611,243.684692 141.933945,242.192551 150.966293,240.700409 
	C151.425995,240.787537 151.885712,240.874649 152.975464,241.082703 
	C154.740021,241.250549 155.874542,241.297470 157.369232,241.511581 
	C158.515869,241.705170 159.302322,241.731552 160.350800,241.977859 
	C162.412521,242.593338 164.212219,242.988892 166.310364,243.570923 
	C167.526611,243.916931 168.444412,244.076447 169.539459,244.500656 
	C170.481445,245.019943 171.246155,245.274536 172.304169,245.730026 
	C174.522842,246.697876 176.448242,247.464828 178.553192,248.502090 
	C179.496033,249.081680 180.259323,249.390961 181.231506,249.946869 
	C182.536835,250.830536 183.633270,251.467575 184.859924,252.384491 
	C185.674652,253.063034 186.359146,253.461700 187.215546,254.147537 
	C190.602524,257.286194 193.817627,260.137665 197.094376,263.309143 
	C198.050812,264.571442 198.945602,265.513763 199.914368,266.736694 
	C200.679138,267.890625 201.369934,268.764008 202.120148,270.007477 
	C205.073090,275.698029 207.966629,281.018494 210.775299,286.739563 
	C211.063263,288.420746 211.436096,289.701263 211.674530,291.230530 
	C211.780670,291.953613 212.021225,292.427979 212.197021,293.253632 
	C212.262817,294.056824 212.393387,294.508698 212.417145,295.324585 
	C212.617233,297.104828 212.924149,298.521057 213.145172,300.340210 
	C213.178940,301.825012 213.298584,302.906921 213.288452,304.405029 
	C213.253647,306.550934 213.348618,308.280670 213.305893,310.401062 
	C213.186859,311.888916 213.205536,312.986145 213.000992,314.367310 
	C212.683197,316.105530 212.588623,317.559723 212.343781,319.339417 
	C212.205444,320.137146 212.217377,320.609467 212.006317,321.256958 
	C211.773804,321.961151 211.764297,322.490112 211.532410,323.366547 
	C211.170258,324.796539 211.030502,325.879028 210.890732,326.961548 
z"/>
<path fill="#4D83C3" opacity="1.000000" stroke="none" 
	d="
M329.971283,92.780746 
	C330.435394,92.832489 330.899475,92.884239 332.120972,92.947060 
	C338.098877,94.434830 343.319397,95.911522 348.248444,97.641174 
	C331.966339,113.199669 315.875916,128.403320 300.062897,143.890182 
	C296.582764,147.298523 293.257843,151.354370 291.357971,155.757736 
	C289.204803,160.748047 286.406830,164.281433 281.009430,164.895859 
	C264.561493,166.768250 250.725647,182.492538 251.267746,198.942047 
	C251.375427,202.209366 252.287460,205.450195 252.612579,207.404663 
	C258.692719,206.092865 263.736237,205.191528 268.673096,203.886749 
	C273.550873,202.597580 278.763214,201.669983 283.039703,199.211288 
	C290.362305,195.001190 293.582550,187.533722 295.567108,179.576355 
	C296.873901,174.336487 299.844666,170.881546 305.393097,169.748779 
	C307.076050,169.405197 308.858765,168.374405 310.085205,167.147842 
	C327.133240,150.097855 344.092377,132.959015 361.318970,116.114639 
	C361.701080,116.590599 361.837524,116.793785 361.973999,116.996971 
	C361.962128,117.456512 361.950287,117.916061 361.946960,119.161827 
	C362.035004,128.952789 362.114532,137.957520 362.194092,146.962250 
	C362.134613,147.426300 362.075134,147.890366 361.996277,149.151138 
	C362.050201,158.952454 362.123474,167.957031 362.196747,176.961624 
	C362.137543,177.425812 362.078339,177.889984 361.997986,179.150497 
	C361.928192,185.939011 361.879578,191.931198 361.830994,197.923386 
	C360.450928,201.283478 359.070831,204.643570 357.335693,208.506485 
	C350.736816,217.311295 342.193634,220.916336 332.034973,221.221497 
	C331.576721,221.144150 331.118500,221.066803 329.858887,220.985428 
	C320.378937,221.039993 311.700348,221.098602 303.021790,221.157227 
	C302.257233,221.095535 301.492676,221.033844 299.892883,220.976593 
	C290.379120,221.040314 281.700653,221.099609 273.022156,221.158905 
	C272.560608,221.110779 272.099060,221.062622 270.847900,221.011169 
	C260.415527,221.477295 251.124557,220.502121 243.073288,214.436295 
	C242.235001,213.369171 241.396698,212.302048 240.188110,210.857880 
	C239.294983,209.949173 238.772171,209.417511 238.249359,208.885864 
	C238.031647,208.349960 237.813950,207.814056 237.296692,206.752350 
	C236.365662,204.774826 235.305649,203.360611 235.174820,201.865082 
	C234.510452,194.271088 234.087006,186.656021 233.579163,179.048325 
	C233.651474,178.579071 233.723770,178.109833 233.816528,176.845947 
	C233.751740,167.055222 233.666489,158.059097 233.700150,148.715332 
	C233.741287,147.891006 233.663513,147.414322 233.708542,146.488708 
	C233.766022,137.041824 233.700684,128.043884 233.635345,119.045929 
	C233.740753,118.588577 233.846176,118.131226 234.033508,116.951256 
	C236.101089,111.569733 238.086761,106.910828 240.072433,102.251923 
	C241.374527,101.082016 242.676620,99.912117 244.435760,98.431000 
	C251.920013,94.000809 259.438507,92.103798 267.605164,93.013618 
	C268.403046,93.102501 269.242584,92.817001 270.516663,92.807480 
	C280.637421,92.867638 290.304260,92.825592 299.971130,92.783539 
	C300.437500,92.833054 300.903870,92.882568 302.158813,92.938454 
	C311.955383,92.890129 320.963318,92.835434 329.971283,92.780746 
z"/>
<path fill="#EE5D65" opacity="1.000000" stroke="none" 
	d="
M272.046631,373.336914 
	C271.586395,373.241882 271.126129,373.146851 269.868469,373.040924 
	C260.249146,373.834259 252.024384,371.742462 244.161789,367.894165 
	C243.032272,366.524231 241.902756,365.154297 240.194244,363.544495 
	C238.781372,361.853241 237.947479,360.401794 237.113602,358.950378 
	C236.924591,358.398651 236.735580,357.846954 236.279175,356.754608 
	C235.208359,352.811554 234.404953,349.409149 233.724915,345.552673 
	C233.759491,339.745850 233.670700,334.393066 233.581924,329.040314 
	C233.653412,328.573883 233.724899,328.107422 233.813843,326.848755 
	C233.747803,317.056274 233.664291,308.056000 233.698807,298.709991 
	C233.737717,297.890717 233.658600,297.417175 233.703522,296.494629 
	C233.746017,288.027924 233.664474,280.010223 233.718246,271.638000 
	C233.833191,270.532227 233.812836,269.780945 233.792480,269.029633 
	C233.904007,268.586517 234.015533,268.143433 234.296539,267.061462 
	C236.755325,261.994446 239.044601,257.566345 241.333862,253.138229 
	C242.256409,252.355804 243.178940,251.573380 244.524841,250.465424 
	C246.863419,249.250015 248.700104,247.893143 250.708160,247.555542 
	C257.427429,246.425842 264.207977,245.660599 270.965057,244.755783 
	C271.423828,244.834366 271.882568,244.912949 273.140137,244.998108 
	C282.618988,244.940323 291.299042,244.875977 299.979095,244.811615 
	C300.744049,244.878433 301.509003,244.945251 303.106445,245.008652 
	C312.428711,245.145874 320.918488,245.286514 329.431396,245.778961 
	C328.118622,247.604904 326.842377,249.138626 325.437958,250.544296 
	C299.906799,276.098541 274.398315,301.675751 248.763870,327.126038 
	C245.888916,329.980347 245.556427,331.821014 248.655731,334.750610 
	C255.911392,341.609070 263.014832,348.648041 269.846741,355.926636 
	C273.020203,359.307556 274.970367,359.211670 278.228973,355.922516 
	C304.355011,329.551758 330.656219,303.354584 356.930603,277.131134 
	C358.317902,275.746521 359.947510,274.604797 361.610046,273.864624 
	C361.902313,281.905487 362.048828,289.431702 362.195343,296.957947 
	C362.134369,297.423431 362.073425,297.888916 361.992493,299.152100 
	C362.046539,308.952637 362.120483,317.955505 362.194458,326.958374 
	C362.132904,327.423523 362.071381,327.888702 361.990784,329.151550 
	C361.600800,337.941193 361.229828,345.933136 360.858887,353.925110 
	C360.152496,355.330933 359.446106,356.736755 358.432526,358.674316 
	C352.057098,368.765869 343.005432,372.810944 332.039734,373.317993 
	C331.578491,373.232300 331.117218,373.146606 329.857727,373.049561 
	C320.054504,373.134583 311.049561,373.230957 302.044586,373.327332 
	C301.583099,373.236450 301.121643,373.145569 299.859985,373.045837 
	C290.055420,373.136963 281.051025,373.236938 272.046631,373.336914 
z"/>
<path fill="#F4C11A" opacity="1.000000" stroke="none" 
	d="
M93.100105,216.410767 
	C92.584747,215.948853 92.069389,215.486938 91.164024,214.668671 
	C89.018990,212.471512 87.263954,210.630692 85.508926,208.789856 
	C85.289993,208.274490 85.071045,207.759140 84.551086,206.691803 
	C83.211090,201.860687 81.769066,197.630493 81.242096,193.289215 
	C80.671066,188.584946 80.952888,183.777145 80.862770,179.014496 
	C80.921509,178.561188 80.980247,178.107895 81.052864,176.861572 
	C80.998894,167.050781 80.931038,158.032990 80.863174,149.015213 
	C80.922462,148.561905 80.981758,148.108612 81.053986,146.862091 
	C81.012833,137.049606 80.958748,128.030350 80.904663,119.011078 
	C80.995743,118.570251 81.086830,118.129433 81.306808,117.032623 
	C84.629852,110.597435 87.824005,104.818230 91.018166,99.039024 
	C91.620560,98.694115 92.222961,98.349205 93.331726,97.658905 
	C99.637939,95.893776 105.392624,94.229706 111.254631,93.146278 
	C114.749840,92.500290 118.413513,92.765816 122.450714,92.767990 
	C132.325119,92.803085 141.750290,92.691757 151.175446,92.580429 
	C151.175446,92.580429 151.565491,92.714012 152.136414,92.750381 
	C159.620544,93.004753 166.533752,93.222740 173.198990,93.754372 
	C171.511047,95.678856 170.144150,97.362640 168.619980,98.889442 
	C149.783615,117.758553 130.907333,136.587891 112.103668,155.489487 
	C110.626053,156.974792 108.896790,158.774231 108.502792,160.679611 
	C106.281685,171.420929 104.433319,182.239334 102.317337,193.346649 
	C102.159302,194.118347 102.141800,194.574875 101.914742,195.279648 
	C101.629120,196.368317 101.553055,197.208740 101.335480,198.361267 
	C101.172783,199.126434 101.151604,199.579498 100.920372,200.292526 
	C99.832657,204.260269 100.039551,204.559128 103.293503,203.804260 
	C104.074234,203.688690 104.510437,203.555267 105.257812,203.508530 
	C106.357864,203.325607 107.146744,203.055984 108.281631,202.807007 
	C109.067314,202.697556 109.506981,202.567459 110.258514,202.522339 
	C111.359627,202.336044 112.148880,202.064804 113.283768,201.814911 
	C114.068611,201.706360 114.507828,201.576462 115.259537,201.529846 
	C116.361092,201.340912 117.150139,201.068710 118.284943,200.818146 
	C119.069260,200.708054 119.507805,200.576324 120.337784,200.517731 
	C127.747200,199.228775 134.822922,198.100388 141.754517,196.388397 
	C144.490814,195.712585 147.387009,194.228928 149.389664,192.272827 
	C162.958252,179.019821 176.283798,165.518402 189.737457,152.147141 
	C195.984894,145.937958 202.343323,139.840439 208.762421,134.267014 
	C209.028015,138.886948 209.182632,142.932144 209.239960,147.312653 
	C209.209000,148.103500 209.275345,148.559052 209.219711,149.467514 
	C209.177567,158.939362 209.257416,167.958328 209.337265,176.977280 
	C209.273911,177.434601 209.210556,177.891922 209.119568,179.138031 
	C209.008865,189.080246 209.658554,198.322281 205.815674,207.021057 
	C205.617432,207.348740 205.419189,207.676422 204.910400,208.391815 
	C199.017395,215.721466 191.934616,220.020218 182.992950,221.044144 
	C182.537766,221.023056 182.082596,221.001984 180.843781,220.989532 
	C171.044449,221.063583 162.028778,221.129013 153.013092,221.194427 
	C152.557678,221.133301 152.102264,221.072174 150.855408,221.005737 
	C141.047501,221.066040 132.031036,221.131668 123.014587,221.197296 
	C122.559906,221.135468 122.105232,221.073639 120.859146,221.004471 
	C110.811150,221.040512 101.475708,221.547546 93.100105,216.410767 
z"/>

<path fill="#84CEC0" opacity="1.000000" stroke="none" 
	d="
M1173.964111,179.008011 
	C1173.989624,178.559708 1174.015259,178.111404 1174.062256,176.862839 
	C1174.043945,167.044479 1174.004150,158.026352 1173.964355,149.008240 
	C1173.994751,148.561981 1174.025269,148.115738 1174.344482,147.065643 
	C1182.749634,146.283875 1190.866333,146.105957 1198.982910,145.928055 
	C1199.439819,145.947495 1199.896851,145.966934 1201.136963,145.992661 
	C1206.598145,146.692596 1211.276367,147.386246 1215.954468,148.079895 
	C1216.369507,148.400085 1216.784546,148.720291 1217.670410,149.339874 
	C1219.829834,151.451797 1221.687378,153.136246 1223.176270,155.100128 
	C1228.271729,161.820969 1227.423706,169.388550 1226.029419,176.995422 
	C1225.945679,177.401154 1225.862061,177.806885 1225.477051,178.701111 
	C1221.597168,182.526627 1218.018799,185.863647 1213.856812,189.744888 
	C1216.995605,195.215973 1220.403931,201.156876 1223.812134,207.097794 
	C1224.203735,208.080048 1224.595459,209.062286 1225.372070,210.544281 
	C1226.037109,212.233627 1226.317261,213.423187 1226.742554,215.229187 
	C1219.508667,213.766205 1211.052734,218.801636 1207.046753,208.979065 
	C1204.687012,204.612244 1202.327148,200.245422 1199.580322,195.394379 
	C1197.650879,190.839722 1195.263672,188.456512 1190.298706,190.709381 
	C1190.298706,196.048706 1190.298706,201.492996 1190.298706,206.937271 
	C1190.254150,207.411728 1190.209595,207.886200 1190.138306,209.139557 
	C1189.969971,211.493942 1189.828613,213.069443 1189.684937,214.670044 
	C1184.353760,214.670044 1179.490723,214.670044 1174.411987,214.670044 
	C1174.242065,212.571732 1174.097900,210.792877 1173.953857,209.014008 
	C1173.981812,208.564270 1174.009644,208.114517 1174.060425,206.863403 
	C1174.043579,197.044037 1174.003906,188.026031 1173.964111,179.008011 
M1207.465454,161.438293 
	C1202.655273,161.279602 1197.842285,160.980042 1193.037231,161.075974 
	C1192.024292,161.096191 1190.255737,162.498749 1190.179565,163.380569 
	C1189.857544,167.107071 1190.043091,170.877441 1190.043091,175.050095 
	C1194.958008,175.050095 1199.098022,174.933044 1203.228271,175.084793 
	C1206.957275,175.221802 1209.752563,173.990356 1211.250122,170.457352 
	C1212.851196,166.680115 1210.969360,164.089081 1207.465454,161.438293 
z"/>

<path fill="#84CEC0" opacity="1.000000" stroke="none" 
	d="
M645.027527,147.927155 
	C645.833435,148.536514 646.639404,149.145859 648.004150,150.050171 
	C649.719910,151.431534 650.876953,152.517929 652.265747,153.821884 
	C649.508240,156.747208 647.039978,159.203674 644.766602,161.828979 
	C642.959778,163.915588 641.449036,164.478516 638.883911,162.660583 
	C636.963684,161.299744 634.330994,160.944275 631.628113,160.029846 
	C620.618530,156.382568 606.503540,166.575958 607.871948,180.249969 
	C607.834534,180.484833 607.885254,180.957794 607.707397,181.132294 
	C607.683533,181.872177 607.837463,182.437561 607.965820,183.398407 
	C608.445984,185.861252 608.785217,187.987167 609.487000,189.985764 
	C612.232788,197.805023 621.977417,203.064011 630.500488,201.186249 
	C639.290222,200.587967 641.266296,198.149094 638.886169,191.345078 
	C635.907654,191.345078 632.936035,191.345078 629.569092,191.184326 
	C628.612671,187.027435 628.051697,183.031296 627.736206,178.744598 
	C629.323364,177.955200 630.665039,177.456375 632.471130,177.024399 
	C640.224426,177.105133 647.513306,177.119019 654.802246,177.132904 
	C654.942017,177.570435 655.081787,178.007965 655.233521,179.214691 
	C655.094849,188.591644 654.944336,197.199402 654.793823,205.807190 
	C654.130615,206.571350 653.467407,207.335526 652.379639,208.452698 
	C645.275818,211.481079 638.596558,214.156433 631.917236,216.831772 
	C631.496826,216.833954 631.076416,216.836151 629.908569,216.841553 
	C619.658630,216.903214 611.133179,213.854736 603.269592,208.701782 
	C602.476624,207.775909 601.683655,206.850037 600.478271,205.507080 
	C593.885803,197.514725 591.696350,188.642441 591.723511,178.733673 
	C591.787537,177.897034 591.742310,177.412018 591.796997,176.524704 
	C592.345947,168.254028 596.110840,161.715408 600.238464,155.322235 
	C603.379272,153.088257 606.520142,150.854279 610.224854,148.287491 
	C617.164917,146.813477 623.541138,145.672256 629.917297,144.531052 
	C630.393127,144.611938 630.868958,144.692810 632.109863,144.836578 
	C636.925842,145.908691 640.976685,146.917923 645.027527,147.927155 
z"/>

<path fill="#84CEC0" opacity="1.000000" stroke="none" 
	d="
M523.596619,149.077286 
	C523.659363,148.598587 523.722046,148.119873 524.086182,147.027344 
	C529.584045,146.246918 534.780518,146.080292 539.976929,145.913666 
	C540.432800,145.939957 540.888733,145.966232 542.149170,146.001190 
	C551.961060,145.976486 560.968323,145.943085 569.975586,145.909698 
	C570.429993,145.938156 570.884460,145.966614 571.926880,146.097534 
	C572.806702,146.439621 573.098511,146.679245 573.390259,146.918854 
	C573.353027,147.403412 573.315796,147.887955 573.249756,149.166245 
	C572.824707,153.678650 572.428467,157.397308 571.688110,161.073029 
	C570.884705,161.065979 570.425354,161.101837 569.503235,161.077881 
	C560.040161,161.062729 551.039856,161.107407 541.630615,161.108093 
	C538.835876,162.977783 538.123230,169.745804 540.206848,171.578705 
	C540.566162,171.894806 541.446655,171.618515 542.539978,171.708099 
	C550.892212,171.800323 558.790894,171.800323 566.672241,171.800323 
	C567.036499,174.005417 567.276489,175.458054 567.425415,177.270874 
	C567.397827,178.118240 567.461304,178.605408 567.394897,179.522614 
	C567.112244,181.878296 566.959534,183.803909 566.739624,186.577972 
	C558.296143,186.577972 550.208130,186.577972 541.728699,186.446503 
	C538.291931,188.383392 538.066772,198.203262 541.044067,199.957535 
	C541.282654,200.098129 541.688232,199.955505 542.481201,199.999146 
	C551.960876,200.023865 560.975647,199.993958 570.324951,200.001099 
	C571.107483,200.020798 571.555481,200.003433 572.307861,200.244202 
	C572.893311,202.641830 573.174438,204.781311 573.455627,206.920792 
	C573.400085,207.403992 573.344543,207.887207 573.257385,209.117950 
	C572.829163,211.623123 572.432556,213.380737 572.036011,215.138367 
	C571.574158,215.114899 571.112366,215.091431 569.843140,215.056976 
	C560.037476,215.085175 551.039307,215.124359 542.041077,215.163528 
	C541.578491,215.132050 541.115906,215.100586 539.845764,215.057526 
	C534.152283,215.045929 529.266296,215.045929 524.300964,215.045929 
	C524.013123,212.619904 523.803040,210.849014 523.592896,209.078140 
	C523.647400,208.597183 523.701904,208.116241 523.787964,206.827240 
	C523.744812,197.038681 523.670105,188.058182 523.595398,179.077667 
	C523.649963,178.596893 523.704529,178.116119 523.789673,176.827240 
	C523.745728,167.038513 523.671143,158.057907 523.596619,149.077286 
z"/>
<path fill="#84CEC0" opacity="1.000000" stroke="none" 
	d="
M987.859070,196.084579 
	C988.937317,197.431564 990.015503,198.778534 991.487671,200.557831 
	C993.527649,203.026932 995.173767,205.063705 996.819946,207.100464 
	C997.331726,207.996094 997.843506,208.891724 998.791626,210.237610 
	C1000.018616,211.933975 1000.809265,213.180084 1002.053833,215.141602 
	C997.966431,215.141602 994.999878,215.141602 992.033264,215.141602 
	C991.569580,215.119797 991.105835,215.097977 989.870178,215.070282 
	C984.752686,215.597916 981.118164,214.715561 979.080688,210.300018 
	C978.786804,209.663177 977.885010,209.306915 977.264526,208.820801 
	C976.768127,207.920776 976.271729,207.020752 975.399841,205.623718 
	C972.282104,201.475967 969.467957,197.876419 966.820312,194.158340 
	C964.687561,191.163361 963.111023,191.262222 961.806763,194.721741 
	C960.877930,196.857483 959.369751,198.934036 959.144104,201.141632 
	C958.710022,205.390076 959.001770,209.712677 958.499573,214.489410 
	C953.229675,214.974289 948.452698,214.974289 943.471924,214.974289 
	C943.277649,212.588409 943.131775,210.796234 942.985840,209.004059 
	C943.010315,208.557434 943.034729,208.110794 943.080322,206.864655 
	C943.063110,197.044693 943.024780,188.024261 942.986450,179.003830 
	C943.011597,178.557510 943.036682,178.111191 943.081909,176.865356 
	C943.063782,167.045212 943.025513,158.024567 942.987244,149.003937 
	C943.017639,148.561081 943.048035,148.118210 943.362061,147.069534 
	C948.720154,146.353760 953.794617,146.243790 958.869141,146.133835 
	C958.869141,155.054977 958.869141,163.976120 958.869141,174.432541 
	C960.817871,172.325043 961.905945,171.148315 963.323792,169.426071 
	C968.470703,162.261978 973.287842,155.643387 978.105042,149.024811 
	C978.461121,148.601089 978.817200,148.177383 979.563477,147.247955 
	C983.291138,146.456161 986.628662,146.170105 989.966248,145.884033 
	C990.152100,145.901886 990.338013,145.919739 991.224243,145.961121 
	C994.356262,146.323044 996.788025,146.661438 999.003784,147.270889 
	C996.156921,151.009933 993.526001,154.477921 990.895081,157.945923 
	C990.315247,158.427780 989.735413,158.909653 988.726929,159.810364 
	C984.119446,165.800949 979.940674,171.372696 975.761841,176.944458 
	C975.456177,177.417191 975.150513,177.889893 974.886108,179.015060 
	C979.237976,185.139862 983.548523,190.612213 987.859070,196.084579 
z"/>
<path fill="#85CFC1" opacity="1.000000" stroke="none" 
	d="
M1151.073120,146.978500 
	C1151.054321,147.435989 1151.035522,147.893494 1151.000000,149.153564 
	C1151.026001,158.960342 1151.068848,167.964539 1151.111694,176.968719 
	C1151.081421,177.427612 1151.051147,177.886505 1151.000977,179.146805 
	C1151.245361,189.133713 1150.897583,198.175537 1144.890503,205.888565 
	C1144.233765,206.666916 1143.576904,207.445267 1142.644165,208.552521 
	C1142.368164,208.881439 1141.996460,208.992615 1141.996460,208.992630 
	C1141.082275,209.741623 1140.168091,210.490585 1138.745117,211.600433 
	C1130.017944,216.757141 1121.262207,217.726303 1112.076538,215.634918 
	C1111.308350,215.361343 1110.540283,215.087769 1109.221436,214.545563 
	C1105.562866,212.428177 1102.455200,210.579407 1099.347412,208.730652 
	C1099.121582,208.239075 1098.895752,207.747498 1098.295410,206.780914 
	C1093.848145,200.683624 1091.484741,194.547821 1091.870850,187.457031 
	C1092.022217,184.676575 1091.701904,181.870438 1091.596191,179.075989 
	C1091.649536,178.595230 1091.702881,178.114471 1091.787842,176.826218 
	C1091.744019,167.038742 1091.668701,158.058777 1091.593384,149.078827 
	C1091.656006,148.599258 1091.718506,148.119690 1092.084106,147.027954 
	C1097.218872,146.306427 1102.050415,146.197067 1106.882080,146.087708 
	C1106.950562,159.398163 1106.844482,172.713547 1107.218750,186.015396 
	C1107.304688,189.067154 1109.042236,192.072433 1110.400757,195.575470 
	C1113.065430,201.189468 1117.813354,201.946548 1122.413574,201.709061 
	C1127.719849,201.435120 1132.289795,198.601837 1133.638184,193.288467 
	C1134.792480,188.739746 1134.453125,183.812012 1134.774414,179.051910 
	C1134.813110,178.582672 1134.851685,178.113434 1134.914795,176.836853 
	C1134.882446,167.038208 1134.825684,158.046890 1134.769043,149.055557 
	C1134.875610,148.317459 1134.982178,147.579361 1135.535522,146.466080 
	C1137.295288,146.015869 1138.608398,145.940872 1139.921387,145.865860 
	C1140.107300,145.888000 1140.293091,145.910126 1141.198120,145.961029 
	C1144.969238,146.319366 1148.021118,146.648926 1151.073120,146.978500 
z"/>
<path fill="#84CEC0" opacity="1.000000" stroke="none" 
	d="
M882.188599,149.044159 
	C882.468079,148.562103 882.747559,148.080063 883.349365,147.043457 
	C889.111267,146.319122 894.550842,146.149353 899.990356,145.979584 
	C900.355896,146.087341 900.721436,146.195099 901.390564,146.523285 
	C901.694153,146.743713 901.794983,147.081436 901.794983,147.081436 
	C901.816772,147.511307 901.838562,147.941193 901.939758,149.066757 
	C905.263611,158.886093 908.508057,168.009735 911.752502,177.133392 
	C911.885559,177.648331 912.018616,178.163284 912.396484,179.279861 
	C915.715698,188.942444 918.790161,198.003387 921.864624,207.064331 
	C921.993347,207.599701 922.122070,208.135086 922.504883,209.312698 
	C922.839966,211.499908 922.920959,213.044891 923.024048,215.011017 
	C919.677185,215.011017 916.854309,214.675217 914.143616,215.083435 
	C909.074707,215.846786 906.056519,214.016617 904.982056,209.004456 
	C903.536743,206.082901 902.091431,203.161331 899.832703,200.207916 
	C895.543640,200.154358 892.014832,200.508469 888.604431,200.026077 
	C882.975159,199.229874 880.288940,201.508743 879.924377,206.983917 
	C879.651550,207.472321 879.378723,207.960724 878.975220,209.101227 
	C878.260193,213.676331 876.287415,215.849838 872.038208,215.154877 
	C871.575195,215.127258 871.112122,215.099640 869.860046,215.063599 
	C866.238159,215.055176 863.405334,215.055176 860.335083,215.055176 
	C860.829163,212.536377 861.168701,210.805847 861.508179,209.075302 
	C861.730713,208.599289 861.953186,208.123260 862.448364,207.134659 
	C865.501892,198.094147 868.282715,189.566208 871.063538,181.038269 
	C871.677185,179.896149 872.290833,178.754028 873.095703,176.962921 
	C876.254089,167.223999 879.221375,158.134079 882.188599,149.044159 
M888.126038,185.665131 
	C891.013916,185.665131 893.901855,185.665131 897.767090,185.665131 
	C895.938049,179.832077 894.422241,174.998032 892.906433,170.164001 
	C892.233826,170.173279 891.561157,170.182556 890.888550,170.191849 
	C889.737183,175.195374 888.585754,180.198914 888.126038,185.665131 
z"/>
<path fill="#84CEC0" opacity="1.000000" stroke="none" 
	d="
M722.040039,215.159103 
	C721.588318,215.108536 721.136597,215.057953 720.117065,214.755280 
	C718.766235,212.639709 717.983276,210.776245 717.165955,208.505737 
	C716.105286,200.114594 716.063782,200.076324 708.411499,200.074783 
	C706.081543,200.074310 703.751648,200.074615 701.421692,200.074707 
	C693.144653,200.075073 692.729614,200.467194 691.815186,209.274445 
	C691.418884,210.355331 691.183655,211.160614 690.948364,211.965912 
	C690.599365,212.655197 690.250366,213.344467 689.460449,214.449554 
	C683.783447,214.865341 678.547485,214.865341 672.596069,214.865341 
	C673.255554,212.411865 673.709229,210.724243 674.162842,209.036621 
	C674.438782,208.551910 674.714722,208.067215 675.173645,206.970642 
	C678.355591,197.264694 681.354614,188.170624 684.353638,179.076569 
	C684.595337,178.578659 684.836975,178.080734 685.122498,176.939148 
	C687.142700,170.548706 689.119141,164.801926 691.095520,159.055145 
	C692.461243,155.347687 693.826965,151.640213 695.562195,147.325943 
	C701.884827,146.851349 707.837952,146.983566 713.791077,147.115768 
	C713.857178,147.544830 713.923279,147.973892 714.057617,149.090820 
	C715.734497,154.200043 717.343201,158.621399 718.951782,163.042786 
	C719.453186,164.563278 719.954590,166.083771 720.765259,168.171051 
	C722.026672,171.500473 722.978821,174.263107 723.931030,177.025757 
	C724.063416,177.571625 724.195740,178.117508 724.571167,179.257462 
	C727.910828,188.892242 731.007446,197.932953 734.104004,206.973663 
	C734.229614,207.532639 734.355164,208.091629 734.744873,209.228180 
	C735.349243,211.342148 735.689514,212.878525 736.194580,215.159103 
	C731.068542,215.159103 726.554321,215.159103 722.040039,215.159103 
M704.529480,185.846054 
	C706.238770,185.742157 707.948059,185.638260 710.449158,185.486237 
	C708.543274,179.768692 706.905579,174.855621 705.267883,169.942551 
	C704.786987,170.021194 704.306091,170.099854 703.825134,170.178513 
	C702.245728,175.080353 700.666382,179.982178 698.902527,185.456451 
	C700.867737,185.616989 702.267700,185.731339 704.529480,185.846054 
z"/>
<path fill="#85CFC1" opacity="1.000000" stroke="none" 
	d="
M461.255951,208.857025 
	C461.081909,208.322174 460.907867,207.787308 460.439453,206.678833 
	C457.796143,198.723343 455.447266,191.341476 453.094147,183.624359 
	C452.525024,182.465317 451.960114,181.641510 451.344604,180.514481 
	C451.187042,179.816177 451.080109,179.421097 450.973206,179.026016 
	C450.881653,178.465714 450.790131,177.905426 450.469360,176.737396 
	C447.174316,167.081635 444.108490,158.033600 441.042664,148.985580 
	C440.992737,148.523010 440.942780,148.060425 441.133392,147.002548 
	C444.242737,146.245071 447.111481,146.082901 449.980255,145.920731 
	C450.437378,145.941681 450.894501,145.962616 452.084930,145.988846 
	C454.527466,146.336517 456.236725,146.678894 457.945984,147.021271 
	C458.082489,147.572083 458.218994,148.122910 458.601013,149.252472 
	C463.172455,163.425934 467.498383,177.020645 471.824341,190.615356 
	C472.330994,190.572388 472.837616,190.529404 473.344238,190.486435 
	C475.904144,181.996429 478.464020,173.506424 481.023926,165.016418 
	C483.019318,159.270172 485.014709,153.523926 487.295471,147.092468 
	C493.163361,146.579529 498.745880,146.751770 504.328430,146.924026 
	C504.219543,147.378937 504.110657,147.833847 503.729858,148.884811 
	C500.494446,158.625916 497.530975,167.770981 494.567505,176.916046 
	C494.338928,177.403809 494.110352,177.891571 493.614349,178.907181 
	C490.238647,188.621033 487.130402,197.807053 484.022125,206.993057 
	C483.944550,207.403671 483.866974,207.814301 483.478973,208.751923 
	C482.702820,211.085663 482.237122,212.892380 481.771423,214.699097 
	C481.369202,214.783493 480.966949,214.867889 479.804077,214.994904 
	C476.889557,215.029816 474.711090,214.809753 472.586700,215.056244 
	C467.277039,215.672256 462.823364,214.970642 461.255951,208.857025 
z"/>
<path fill="#84CEC0" opacity="1.000000" stroke="none" 
	d="
M842.080383,190.482422 
	C841.596375,190.427856 841.112427,190.373291 839.821289,190.290497 
	C837.194092,190.233932 835.374023,190.182098 833.553955,190.180878 
	C817.177185,190.169922 817.177185,190.172531 818.061462,206.981903 
	C818.034607,207.435120 818.007751,207.888321 817.960571,209.102936 
	C817.835388,211.424225 817.730469,212.984100 817.613220,214.727585 
	C815.514160,214.889114 813.776550,215.022827 812.038940,215.156525 
	C811.576111,215.128128 811.113342,215.099731 809.864624,215.061646 
	C806.863464,215.051956 804.648193,215.051956 802.335144,215.051956 
	C802.096008,212.570267 801.926758,210.813797 801.757507,209.057327 
	C801.798096,208.586319 801.838745,208.115326 801.904846,206.836212 
	C801.872803,197.037781 801.815247,188.047455 801.757690,179.057144 
	C801.798889,178.586365 801.840088,178.115601 801.905945,176.836670 
	C801.872559,167.038116 801.814514,158.047714 801.756470,149.057327 
	C801.804016,148.589035 801.851624,148.120743 802.177612,147.044449 
	C804.962219,146.260254 807.468445,146.084061 809.974670,145.907867 
	C810.430420,145.936081 810.886230,145.964310 812.147095,146.003799 
	C821.959656,145.978973 830.967163,145.942886 839.974609,145.906799 
	C840.430298,145.936005 840.885925,145.965210 842.121826,146.004150 
	C845.871033,146.331787 848.839905,146.649689 851.808838,146.967590 
	C851.645996,147.480164 851.483215,147.992737 851.278870,149.217255 
	C851.138428,153.611954 851.039490,157.294739 850.494446,160.972565 
	C847.372986,161.041290 844.697571,161.114944 841.555298,161.121674 
	C833.498474,161.054733 825.908508,161.054733 817.876648,161.054733 
	C817.876648,165.389709 817.615356,169.057144 818.025085,172.648010 
	C818.159973,173.830780 820.009949,175.718857 821.110474,175.743713 
	C828.086426,175.901291 835.072144,175.626724 842.399536,175.609711 
	C843.817688,176.154266 844.890930,176.583817 845.964233,177.013367 
	C845.691040,181.055557 845.417847,185.097733 844.775146,189.635437 
	C843.630554,190.248123 842.855469,190.365280 842.080383,190.482422 
z"/>
<path fill="#85CFC1" opacity="1.000000" stroke="none" 
	d="
M1290.677002,169.621735 
	C1289.033447,172.415726 1287.389893,175.209686 1285.379639,178.475677 
	C1283.301147,182.809189 1280.715576,186.535660 1280.093140,190.565399 
	C1279.266235,195.918442 1279.970581,201.507980 1280.016846,206.995911 
	C1279.995361,207.443512 1279.973877,207.891129 1279.933838,209.105255 
	C1279.797974,211.457108 1279.680664,213.042419 1279.558105,214.696991 
	C1274.215576,214.696991 1269.340576,214.696991 1264.304932,214.696991 
	C1264.073242,212.625610 1263.874390,210.849060 1263.675659,209.072510 
	C1263.723999,208.596573 1263.772217,208.120621 1263.853027,206.836121 
	C1263.292603,199.317703 1262.699585,192.607819 1262.106445,185.897949 
	C1261.383545,184.562378 1260.660767,183.226791 1259.605591,181.456055 
	C1258.925537,180.305542 1258.577759,179.590179 1258.229980,178.874802 
	C1258.066650,178.351120 1257.903320,177.827438 1257.467285,176.747925 
	C1252.492798,167.114319 1247.790894,158.036545 1243.088989,148.958801 
	C1243.061523,148.233292 1243.033936,147.507767 1243.509521,146.419403 
	C1249.004150,146.023087 1253.995605,145.989639 1258.987061,145.956207 
	C1259.382324,146.045120 1259.777710,146.134033 1260.514404,146.442871 
	C1260.855957,146.662796 1261.014404,146.995697 1261.019531,147.372986 
	C1264.327148,155.276566 1267.629761,162.802887 1270.932251,170.329193 
	C1271.572632,170.226852 1272.213013,170.124527 1272.853394,170.022186 
	C1276.208862,162.344345 1279.564331,154.666504 1283.224609,146.751511 
	C1285.344971,146.312927 1287.160400,146.111481 1288.975830,145.910049 
	C1289.432251,145.936111 1289.888550,145.962173 1291.127930,145.996399 
	C1294.994263,146.321442 1298.077393,146.638321 1301.160645,146.955200 
	C1301.052979,147.376709 1300.945435,147.798203 1300.545166,148.764893 
	C1297.060669,156.080627 1293.868774,162.851166 1290.677002,169.621735 
z"/>
<path fill="#84CEC0" opacity="1.000000" stroke="none" 
	d="
M1052.485107,206.914612 
	C1052.328979,209.299530 1052.172607,211.684448 1052.008179,214.534943 
	C1052.000000,215.000534 1051.965942,214.959763 1051.965942,214.959763 
	C1051.215454,214.984238 1050.465088,215.008713 1048.886597,215.037247 
	C1044.401001,215.009338 1040.743286,214.977402 1037.085693,214.945465 
	C1036.975464,212.555847 1036.865356,210.166260 1036.764404,206.897766 
	C1036.686157,197.041489 1036.598511,188.064102 1036.510742,179.086716 
	C1036.573608,178.602249 1036.636353,178.117783 1036.738525,176.828384 
	C1036.807617,172.364258 1036.709473,168.698105 1036.907593,165.048035 
	C1037.066772,162.117065 1036.171753,160.728287 1033.000732,160.934647 
	C1029.355103,161.171906 1025.687256,161.069992 1022.029114,161.115387 
	C1021.566956,161.093765 1021.104797,161.072159 1019.885071,161.040222 
	C1018.082153,159.957352 1016.295532,158.987061 1016.130798,157.792999 
	C1015.640442,154.238495 1015.787537,150.596085 1015.975830,146.747772 
	C1017.498535,146.297638 1018.730957,146.087769 1019.963440,145.877899 
	C1020.148987,145.897629 1020.334473,145.917328 1021.255920,145.964355 
	C1030.990479,145.974014 1039.988892,145.956314 1048.987427,145.938629 
	C1049.744995,145.965836 1050.502563,145.993042 1052.103149,146.020203 
	C1059.696533,146.329636 1066.446777,146.639114 1073.197144,146.948593 
	C1073.171143,147.419144 1073.145142,147.889679 1073.099121,149.160248 
	C1073.079224,153.523300 1073.079224,157.086349 1073.079224,160.981110 
	C1066.952759,160.981110 1061.813232,161.117065 1056.685669,160.930222 
	C1053.596680,160.817673 1052.570190,162.021271 1052.715820,165.002823 
	C1052.910156,168.981644 1052.801758,172.975220 1052.823486,176.962463 
	C1052.617920,177.780090 1052.412354,178.597702 1052.207275,180.189636 
	C1052.300293,189.614151 1052.392700,198.264389 1052.485107,206.914612 
z"/>

<path fill="#F2A280" opacity="1.000000" stroke="none" 
	d="
M209.125397,116.974480 
	C209.113037,117.431633 209.100677,117.888794 209.071625,119.116135 
	C209.480804,122.672142 209.906677,125.457954 210.342651,128.473297 
	C210.411957,129.014084 210.552460,129.282867 210.544464,129.675323 
	C209.942917,130.418533 209.571167,130.995529 209.066315,131.285217 
	C207.562271,131.574265 205.851410,131.807281 204.870911,132.778000 
	C187.475174,150.000076 170.171982,167.315628 152.834732,184.596848 
	C151.494278,185.932983 150.048782,187.163757 149.100754,188.032394 
	C145.638611,184.800507 142.715805,182.072113 139.819534,179.368469 
	C162.203125,156.803223 184.698120,134.125656 207.423279,111.804977 
	C208.144104,113.766068 208.634750,115.370270 209.125397,116.974480 
z"/>
<path fill="#4FA3A5" opacity="1.000000" stroke="none" 
	d="
M359.002136,259.990967 
	C359.997864,262.789612 360.993591,265.588257 362.035400,268.980713 
	C361.967529,269.721863 361.853577,269.869263 361.389343,270.019958 
	C359.455902,271.113159 357.660370,271.989838 356.321136,273.324402 
	C330.367340,299.187164 304.450745,325.087433 278.600342,351.053467 
	C277.221191,352.438751 276.492279,354.471375 274.807770,357.298309 
	C271.097656,353.087067 268.941040,350.639191 267.145477,348.111511 
	C269.052704,346.816223 270.741486,345.743530 272.124084,344.364014 
	C299.137848,317.410706 326.104065,290.409760 353.133331,263.472076 
	C354.613281,261.997131 356.557861,260.988464 358.462708,259.827606 
	C358.639191,259.892456 359.002136,259.990967 359.002136,259.990967 
z"/>

<path fill="#2C4159" opacity="1.000000" stroke="none" 
	d="
M266.784454,348.191284 
	C268.941040,350.639191 271.097656,353.087067 274.807770,357.298309 
	C276.492279,354.471375 277.221191,352.438751 278.600342,351.053467 
	C304.450745,325.087433 330.367340,299.187164 356.321136,273.324402 
	C357.660370,271.989838 359.455902,271.113159 361.450378,270.365051 
	C361.729309,271.587860 361.596802,272.468933 361.464294,273.349976 
	C359.947510,274.604797 358.317902,275.746521 356.930603,277.131134 
	C330.656219,303.354584 304.355011,329.551758 278.228973,355.922516 
	C274.970367,359.211670 273.020203,359.307556 269.846741,355.926636 
	C263.014832,348.648041 255.911392,341.609070 248.655731,334.750610 
	C245.556427,331.821014 245.888916,329.980347 248.763870,327.126038 
	C274.398315,301.675751 299.906799,276.098541 325.437958,250.544296 
	C326.842377,249.138626 328.118622,247.604904 329.530060,245.684113 
	C329.672974,245.058029 329.794250,244.929581 329.969391,244.852097 
	C329.969391,244.852097 330.304321,244.765106 330.507080,244.854797 
	C331.144287,245.029404 331.578735,245.114304 331.966003,245.527374 
	C330.926300,247.549240 329.933838,249.242935 328.611084,250.992767 
	C327.498291,252.010605 326.715759,252.972321 325.608337,253.984863 
	C324.515656,255.185974 323.747894,256.336212 322.877319,257.634277 
	C322.774536,257.782043 322.476440,257.983917 322.149292,257.996338 
	C320.851288,258.976105 319.880493,259.943420 318.573181,260.974243 
	C316.489868,263.022491 314.743073,265.007263 312.808228,267.128845 
	C312.379181,267.468536 312.191193,267.712250 311.715668,268.026855 
	C310.556061,269.010376 309.737000,269.963898 308.591827,270.981506 
	C307.480347,272.000732 306.695007,272.955902 305.577972,273.974091 
	C304.496307,275.023804 303.746307,276.010498 302.815338,277.134460 
	C302.399109,277.471283 302.221649,277.713257 301.750305,278.029602 
	C298.597961,281.042969 295.797241,284.024323 292.821106,287.142639 
	C292.415955,287.476562 292.245941,287.715912 291.792084,288.037140 
	C290.965118,288.756042 290.481720,289.435455 289.801453,290.225525 
	C289.365479,290.524353 289.160522,290.744415 288.653015,291.029907 
	C287.518707,292.016998 286.721130,292.970459 285.589905,293.982788 
	C284.503082,295.029694 283.749908,296.017731 282.827209,297.143890 
	C282.433685,297.478333 282.272614,297.717133 281.828491,298.034332 
	C280.985657,298.748718 280.488770,299.427124 279.673370,300.188965 
	C277.909882,302.189423 276.464874,304.106415 274.676697,306.090363 
	C271.509033,308.771515 268.684479,311.385712 265.536041,314.038574 
	C264.451355,315.028137 263.690552,315.979095 262.590149,316.992981 
	C261.452087,318.314056 260.653564,319.572205 259.506805,320.887146 
	C258.100433,321.947876 257.042297,322.951874 255.998322,324.285461 
	C256.097809,325.045837 256.183075,325.476562 255.833374,325.933777 
	C251.834259,325.576538 251.953140,328.133667 251.500031,330.377502 
	C250.807846,330.934570 249.962601,332.041962 250.086975,332.164398 
	C251.226624,333.286346 252.534592,334.237305 253.991119,335.503113 
	C258.387329,339.909180 262.585907,344.050232 266.784454,348.191284 
z"/>

<path fill="#F26B71" opacity="1.000000" stroke="none" 
	d="
M960.520996,320.812439 
	C956.808716,313.947784 954.824768,307.127441 958.092407,299.369080 
	C958.263367,298.645477 958.404785,298.313904 958.626587,297.724670 
	C959.157776,296.912842 959.608704,296.358673 960.106445,295.535339 
	C961.063416,294.406616 961.973572,293.547119 963.310181,292.238098 
	C971.867920,284.909180 980.708191,284.991486 989.960327,289.117798 
	C990.380920,289.490814 990.801575,289.863831 991.492432,290.336914 
	C993.756104,292.677063 995.749512,294.917114 997.984802,297.351868 
	C998.332703,297.867157 998.438843,298.187775 998.697388,299.134125 
	C1002.331726,310.000671 999.452515,318.471771 991.667175,325.578003 
	C990.088379,326.416595 988.509583,327.255188 986.646973,328.284485 
	C981.358154,328.531036 976.353088,328.586914 970.980713,328.569305 
	C967.341919,326.000000 964.070435,323.504181 960.520996,320.812439 
M988.467529,294.731415 
	C980.871704,289.372894 973.999817,289.803741 966.479980,296.335968 
	C965.940247,297.201019 965.400513,298.066101 964.282715,299.380249 
	C959.602295,309.030945 962.598022,318.781891 971.557068,323.057800 
	C978.250183,326.252228 985.643188,324.690613 989.857056,319.144135 
	C997.356140,312.990173 996.975525,302.865173 988.467529,294.731415 
z"/>

<path fill="#F26B71" opacity="1.000000" stroke="none" 
	d="
M823.125610,287.553741 
	C827.144653,286.259979 829.783997,287.840454 831.656006,291.349792 
	C832.657349,293.227020 834.149536,294.842377 835.669983,296.798706 
	C837.258362,298.966400 838.596924,300.911316 840.339478,303.359131 
	C844.411743,309.166718 848.080017,314.471436 852.352173,320.649323 
	C852.352173,312.364014 852.352173,305.618134 852.352173,298.872253 
	C852.377869,298.476227 852.403503,298.080231 852.396118,297.388977 
	C852.409241,296.930939 852.455383,296.768158 852.653564,296.006470 
	C852.755920,292.930450 852.706238,290.453369 852.656616,287.976257 
	C854.149963,287.579071 855.643372,287.181885 858.097412,286.529175 
	C858.097412,290.238373 858.097412,293.160614 858.208496,296.524963 
	C858.257935,297.430634 858.196350,297.894135 858.114136,299.153656 
	C858.170288,308.952118 858.247070,317.954620 858.323853,326.957092 
	C858.186584,327.374573 858.049316,327.792023 857.828857,328.528442 
	C856.187439,328.852692 854.629395,328.857941 852.685303,328.832642 
	C851.939148,328.323395 851.578979,327.844757 850.922729,326.846558 
	C847.771729,322.473145 844.916748,318.619324 842.061829,314.765503 
	C841.633911,314.119232 841.206055,313.472931 840.459961,312.345398 
	C836.937256,307.493408 833.732727,303.122650 830.321960,298.477173 
	C829.594360,298.403381 829.073059,298.604309 828.364929,299.185608 
	C828.231445,308.699005 828.284790,317.832062 828.338135,326.965118 
	C828.201904,327.383057 828.065613,327.800964 827.843872,328.537384 
	C826.494812,328.865936 825.231140,328.876007 823.588745,328.877533 
	C823.117981,328.683411 823.025818,328.497803 822.870544,327.622253 
	C822.647034,317.593140 822.486694,308.253998 822.326355,298.914825 
	C822.572510,295.273468 822.818665,291.632111 823.125610,287.553741 
z"/>

<path fill="#F26B71" opacity="1.000000" stroke="none" 
	d="
M601.875244,321.246552 
	C602.946533,323.098358 604.017761,324.950165 605.327026,327.007904 
	C605.607361,327.566925 605.649719,327.920044 605.684937,328.539520 
	C604.700134,328.864746 603.722534,328.923584 602.382141,329.049255 
	C601.584595,329.050598 601.149780,328.985077 600.384583,328.921326 
	C600.054199,328.923096 600.019836,328.944550 599.885864,328.646301 
	C597.476379,324.681763 594.795105,321.199890 593.024414,317.304138 
	C590.616821,312.007141 586.757202,310.791016 581.419617,311.180420 
	C578.291138,311.408661 576.942139,312.181091 577.062988,315.512787 
	C577.225037,319.977722 576.936157,324.459045 576.840820,328.933319 
	C575.514893,328.907654 574.189026,328.881958 572.466553,328.837769 
	C572.068848,315.237762 572.067749,301.656250 572.518188,287.561310 
	C581.597168,287.408691 590.224670,287.769501 598.852112,288.130341 
	C599.691833,288.713257 600.531616,289.296204 601.659546,289.995667 
	C603.133240,292.225616 604.318787,294.339050 605.680054,296.742401 
	C605.851074,297.472565 605.846313,297.912781 605.915649,298.675690 
	C604.692932,301.980225 603.396179,304.962097 601.599060,308.372559 
	C599.367249,309.703064 597.635803,310.604950 595.262024,311.841431 
	C597.583679,315.143188 599.729431,318.194855 601.875244,321.246552 
M579.941650,306.912354 
	C584.268005,306.927185 588.600342,307.091553 592.919067,306.917786 
	C597.960083,306.714996 599.969971,304.454163 600.618774,298.359131 
	C599.421082,292.778656 596.992920,291.273132 589.120544,291.229828 
	C575.923218,291.157227 575.486877,291.614624 577.183838,304.575043 
	C577.288330,305.373383 578.383362,306.042023 579.941650,306.912354 
z"/>

<path fill="#F26B71" opacity="1.000000" stroke="none" 
	d="
M1141.646240,286.836273 
	C1147.826050,286.821014 1153.634277,286.750549 1159.423950,287.045288 
	C1160.601562,287.105255 1161.709229,288.540314 1162.849121,289.341522 
	C1161.664795,290.104248 1160.508057,291.470367 1159.291382,291.525940 
	C1153.828979,291.775391 1148.349609,291.652313 1142.403809,291.717804 
	C1139.060547,291.272797 1137.559570,292.193207 1137.815186,295.390808 
	C1137.997437,297.671783 1137.618652,300.013214 1137.949219,302.260162 
	C1138.115234,303.388428 1139.305054,304.366119 1140.476807,305.389893 
	C1145.573608,305.513794 1150.239136,305.500671 1154.868774,305.901611 
	C1156.275269,306.023376 1157.582764,307.288055 1158.935669,308.029297 
	C1157.516968,308.713959 1156.129761,309.897003 1154.673462,309.989532 
	C1150.363892,310.263336 1146.024902,310.186249 1141.701050,310.089233 
	C1138.981201,310.028229 1137.804321,311.026978 1137.868042,313.872253 
	C1138.143433,326.195007 1136.266602,323.984558 1147.509888,324.247894 
	C1151.335083,324.337463 1155.175171,324.096924 1158.985107,324.354156 
	C1160.334229,324.445282 1161.613770,325.567749 1163.039795,326.600006 
	C1163.036987,327.381470 1162.919678,327.782318 1162.734375,328.488708 
	C1155.761597,328.861328 1148.856567,328.928467 1141.490234,329.068146 
	C1140.574463,329.086761 1140.120361,329.032837 1139.327148,329.039551 
	C1137.090698,328.996765 1135.192993,328.893372 1132.908447,328.718079 
	C1132.456665,328.286133 1132.391968,327.926056 1132.329590,326.836304 
	C1132.275757,317.057526 1132.219604,308.008423 1132.163574,298.959351 
	C1132.205688,298.534698 1132.247803,298.110016 1132.241455,297.368286 
	C1131.953613,296.270355 1131.605713,295.504944 1131.492432,294.706207 
	C1130.493530,287.668091 1131.030396,287.047668 1138.538330,286.822144 
	C1139.737671,286.805328 1140.502930,286.857666 1141.646240,286.836273 
z"/>

<path fill="#F26B71" opacity="1.000000" stroke="none" 
	d="
M1200.871094,287.519287 
	C1213.259277,285.012604 1218.829102,287.268219 1223.704834,296.723999 
	C1223.862305,297.025116 1223.743164,297.328003 1223.459961,297.581604 
	C1221.641846,298.150787 1220.106812,298.466339 1218.456177,298.433258 
	C1215.202393,291.325928 1208.610596,288.824554 1202.610474,292.115509 
	C1197.717651,294.799164 1197.472778,299.320923 1202.265503,303.201141 
	C1207.573242,305.003387 1212.716431,306.320679 1217.687866,308.114044 
	C1223.266968,310.126617 1225.850220,315.177856 1223.890015,320.359375 
	C1222.988037,322.743561 1221.045654,324.734131 1219.575073,326.903198 
	C1218.679321,327.320312 1217.783447,327.737427 1216.644531,328.338074 
	C1211.578369,328.568054 1206.755127,328.614471 1201.519775,328.599548 
	C1199.956055,327.721100 1198.804565,326.903931 1197.362915,325.977509 
	C1195.293579,323.375427 1193.514404,320.882599 1190.903442,317.224304 
	C1193.907227,317.014954 1195.517456,316.902710 1197.472778,317.332336 
	C1201.463379,324.225098 1206.853882,326.528595 1213.237061,324.399780 
	C1216.437988,323.332245 1218.920044,321.523987 1219.091675,317.782288 
	C1219.268677,313.923889 1216.418579,312.698090 1213.492798,311.785706 
	C1208.735840,310.302216 1203.920166,309.006592 1199.129272,307.631653 
	C1197.135986,304.984924 1195.142822,302.338165 1193.025635,299.352966 
	C1192.947510,298.561554 1192.993286,298.108582 1192.970459,297.319214 
	C1194.830078,294.239227 1196.758423,291.495667 1198.903687,288.506897 
	C1199.642212,288.082367 1200.163574,287.902985 1200.871094,287.519287 
z"/>

<path fill="#F2676D" opacity="1.000000" stroke="none" 
	d="
M721.689575,286.818848 
	C725.083252,288.007751 724.460449,289.716003 722.289978,291.688293 
	C721.528992,291.768494 721.101746,291.733551 719.891235,291.677826 
	C712.784607,291.657074 706.461243,291.657074 699.811523,291.657074 
	C699.811523,293.870422 699.811523,295.457306 699.811523,297.044189 
	C699.768677,297.470062 699.725830,297.895966 699.662842,299.087128 
	C699.642639,301.644470 699.642639,303.436554 699.642639,305.675262 
	C706.747131,305.675262 713.352173,305.675262 719.957153,305.675262 
	C720.106140,306.996857 720.255188,308.318420 719.723206,309.868256 
	C713.755676,310.091644 708.462952,309.947571 703.187500,310.186371 
	C701.972351,310.241364 699.872986,311.523804 699.794678,312.387665 
	C699.430603,316.405396 699.633545,320.474579 699.633545,325.376648 
	C707.012268,324.882935 713.504150,324.448578 719.996033,324.014221 
	C720.437744,324.070435 720.879517,324.126617 721.652832,324.130371 
	C722.860413,324.861176 723.736450,325.644409 724.696472,326.738220 
	C724.705383,327.403412 724.630310,327.758118 724.511841,328.380432 
	C723.854614,328.751709 723.240662,328.855316 722.322876,329.034943 
	C721.564941,329.068329 721.110962,329.025665 720.319336,329.046265 
	C711.735352,329.026947 703.489014,328.944336 694.805542,328.817078 
	C694.277527,318.483704 694.186584,308.195007 694.100098,296.996399 
	C694.104614,293.186859 694.104614,290.287201 694.104614,286.742859 
	C703.245605,286.742859 711.604614,286.742859 719.963623,286.742859 
	C720.424744,286.791077 720.885803,286.839325 721.689575,286.818848 
z"/>
<path fill="#F2676D" opacity="1.000000" stroke="none" 
	d="
M661.690063,286.815613 
	C662.986816,287.386810 663.941040,288.028015 664.895264,288.669250 
	C664.157715,289.662170 663.420105,290.655121 662.320190,291.728760 
	C661.530579,291.772400 661.103210,291.735382 659.892212,291.676758 
	C654.453552,291.640350 649.784607,291.842255 645.147339,291.547058 
	C640.891113,291.276123 639.175415,292.680176 640.430603,296.953888 
	C640.364990,297.421661 640.299377,297.889404 640.225952,299.081604 
	C639.737732,304.493164 641.684326,306.350586 646.496521,305.880005 
	C650.950317,305.444489 655.467529,305.658203 659.956848,305.586029 
	C660.358521,305.762665 660.760254,305.939331 661.467285,306.237610 
	C661.749573,307.210541 661.726440,308.061829 661.438904,309.350922 
	C660.769836,309.959717 660.365173,310.130676 659.501282,310.218689 
	C652.982361,310.135712 646.922729,310.135712 640.113403,310.135712 
	C640.113403,314.057465 640.266052,317.191559 640.069946,320.303711 
	C639.877930,323.352325 641.047791,324.449341 644.081970,324.313965 
	C649.384094,324.077362 654.698486,324.116150 660.336304,324.107605 
	C661.107544,324.130280 661.550354,324.084991 661.993103,324.039673 
	C663.051514,324.785980 664.109863,325.532318 665.285034,326.624634 
	C665.254822,327.390686 665.107727,327.810699 664.874939,328.553741 
	C664.093628,328.908417 663.398071,328.940033 662.360657,329.041077 
	C661.565002,329.067871 661.111084,329.025269 660.319641,329.045349 
	C652.043945,329.031494 644.105896,328.954926 635.721191,328.856873 
	C635.173218,328.414398 635.071777,327.993408 634.960571,326.811249 
	C634.883118,317.045349 634.815430,308.040649 634.747803,299.035950 
	C634.803650,298.572662 634.859497,298.109375 634.932251,296.858795 
	C634.949158,293.167236 634.949158,290.262939 634.949158,286.743103 
	C643.842285,286.743103 651.902954,286.743103 659.963684,286.743103 
	C660.424988,286.790619 660.886230,286.838104 661.690063,286.815613 
z"/>
<path fill="#F26B71" opacity="1.000000" stroke="none" 
	d="
M1081.685425,286.374146 
	C1090.699463,286.022583 1098.350830,288.117371 1103.213013,296.627319 
	C1103.304443,296.977142 1102.975342,297.244873 1102.920288,297.448792 
	C1101.633911,298.018097 1100.402466,298.383514 1098.714233,298.456512 
	C1097.557129,297.375305 1096.856934,296.586548 1095.960449,295.511047 
	C1091.641602,292.069305 1087.255615,289.963806 1081.513184,291.757996 
	C1077.962402,294.127380 1074.792969,296.480133 1071.333008,299.049072 
	C1065.960693,309.034882 1069.151245,318.702789 1079.182495,323.436066 
	C1080.271729,323.798187 1081.123779,323.936951 1081.975708,324.075714 
	C1087.675049,325.657501 1092.327148,323.488831 1096.472656,319.861145 
	C1099.447998,317.257416 1099.372314,317.170898 1104.003052,320.743683 
	C1101.521729,322.658813 1099.204834,324.447052 1096.656250,326.502686 
	C1096.003906,326.938141 1095.583252,327.106201 1095.041382,327.471680 
	C1090.547607,328.308075 1086.175293,328.947083 1081.351685,329.562927 
	C1080.900513,329.539795 1080.623047,329.407288 1080.471680,329.383911 
	C1078.805786,328.832764 1077.291260,328.304962 1075.440186,327.688049 
	C1074.741211,327.345367 1074.379028,327.091766 1073.560791,326.591736 
	C1063.925049,319.241119 1061.159302,310.135223 1064.600220,299.092468 
	C1064.864868,298.653564 1065.129395,298.214661 1065.463501,297.526001 
	C1069.802124,293.912384 1074.071167,290.548492 1078.662476,287.025391 
	C1079.794556,286.751526 1080.604248,286.636902 1081.685425,286.374146 
z"/>

<path fill="#F26B71" opacity="1.000000" stroke="none" 
	d="
M901.018555,322.363281 
	C897.811462,314.511597 894.858459,306.911499 891.680908,299.047058 
	C891.300171,298.284973 891.144165,297.787170 890.828491,297.085815 
	C889.573975,293.800568 888.479004,290.718903 887.365906,287.586151 
	C891.227844,285.998444 893.260986,287.363464 894.418640,290.832001 
	C895.098083,292.867889 896.091553,294.799011 897.149780,297.052826 
	C898.293091,299.774017 899.230286,302.219635 900.489746,305.274719 
	C902.775024,310.856689 904.738098,315.829163 906.701172,320.801666 
	C907.157227,320.743439 907.613281,320.685211 908.069336,320.626984 
	C910.805664,313.389893 913.541931,306.152832 916.278198,298.915741 
	C916.492493,298.700592 916.598450,298.441376 916.565369,297.935333 
	C916.534668,297.732605 916.468872,297.522461 916.683350,297.435120 
	C917.233826,296.898254 917.569763,296.448730 917.905701,295.999207 
	C918.695251,294.185211 919.653198,292.423615 920.237610,290.545776 
	C921.296387,287.144409 923.322205,286.144257 927.139709,287.673035 
	C926.023926,290.576874 924.927979,293.429138 923.803467,296.661499 
	C923.631714,297.404449 923.488403,297.767334 923.072388,298.630005 
	C918.992004,308.382996 915.184387,317.636230 911.376709,326.889435 
	C911.116760,327.306519 910.856750,327.723572 910.515930,328.375488 
	C908.446472,328.627441 906.457825,328.644592 904.129395,328.530945 
	C902.950623,326.471710 902.111633,324.543274 901.018555,322.363281 
z"/>
<path fill="#F2676D" opacity="1.000000" stroke="none" 
	d="
M515.002319,286.745209 
	C523.017334,286.797607 531.032349,286.849976 539.508362,286.824829 
	C540.427917,286.800110 540.886414,286.852905 541.688843,286.852356 
	C542.159424,288.289825 542.286133,289.780670 542.172974,291.504425 
	C541.511108,291.720428 541.089111,291.703522 539.888794,291.670227 
	C533.711365,291.639526 528.297180,291.868042 522.917725,291.534882 
	C518.534607,291.263336 517.274658,292.965240 518.320496,296.960480 
	C518.261902,297.424805 518.203308,297.889099 518.129883,299.094513 
	C517.502930,304.418762 519.621582,306.023529 524.071899,305.836884 
	C529.046570,305.628235 534.041138,305.894806 539.027039,305.954559 
	C539.028870,307.018005 539.030762,308.081421 538.543457,309.582428 
	C532.726440,310.045898 527.381897,309.852386 522.082275,310.252716 
	C520.765076,310.352173 518.649353,312.277466 518.524109,313.526367 
	C518.078857,317.965973 518.334412,322.475891 518.324524,326.959167 
	C518.191956,327.379303 518.059326,327.799469 517.845215,328.539978 
	C516.503174,328.867279 515.242493,328.874176 513.604309,328.876068 
	C513.165222,315.272461 513.103699,301.673920 513.376465,287.565063 
	C514.141235,286.951569 514.571777,286.848389 515.002319,286.745209 
z"/>
<path fill="#F26B71" opacity="1.000000" stroke="none" 
	d="
M794.006104,298.676270 
	C794.018860,308.029205 793.963501,317.046967 793.989014,326.526855 
	C793.971985,327.388489 793.874084,327.788025 793.720947,328.490845 
	C792.190674,328.799896 790.715637,328.805603 788.887573,328.726013 
	C788.478088,328.284302 788.421570,327.927887 788.367310,326.843109 
	C788.317261,317.058807 788.264771,308.002869 788.212280,298.946930 
	C788.251038,298.527130 788.289795,298.107361 788.278564,297.374817 
	C787.961670,295.472229 787.609558,293.891174 787.444214,292.290863 
	C786.990784,287.900330 788.858276,286.159882 793.910278,287.555023 
	C793.910278,290.297913 793.910278,293.194946 793.993652,296.539612 
	C794.030701,297.438538 793.984375,297.889832 794.006104,298.676270 
z"/>
<path fill="#F26B71" opacity="1.000000" stroke="none" 
	d="
M1034.658569,298.614441 
	C1034.652100,307.991211 1034.607666,317.061401 1034.629883,326.603516 
	C1034.634155,327.415710 1034.571533,327.755981 1034.464111,328.350891 
	C1032.954834,328.694031 1031.490234,328.782471 1029.654297,328.849060 
	C1029.178101,328.408142 1029.073364,327.989105 1028.961792,326.810822 
	C1028.885010,317.046173 1028.815063,308.040802 1028.745239,299.035400 
	C1028.805664,298.573486 1028.866089,298.111603 1028.834961,297.309387 
	C1028.909302,293.899231 1029.075195,290.829346 1029.268677,287.248230 
	C1030.905762,287.173157 1032.413208,287.104034 1034.562378,287.005493 
	C1034.562378,290.366913 1034.562378,293.266266 1034.629883,296.621399 
	C1034.671753,297.487457 1034.646118,297.897675 1034.658569,298.614441 
z"/>

<path fill="#EF9D4C" opacity="1.000000" stroke="none" 
	d="
M359.045288,107.976028 
	C359.410706,109.270370 359.776123,110.564697 359.866669,112.429527 
	C343.859558,129.056152 328.265167,145.250763 312.335602,161.108658 
	C304.637146,168.772461 304.054260,168.409744 296.520538,160.783112 
	C293.719025,157.947037 293.625946,155.423233 296.276031,152.581070 
	C300.251617,148.317398 303.971008,143.789627 308.181213,139.774582 
	C322.384155,126.229942 336.755585,112.861946 351.403992,99.558258 
	C354.178711,102.452080 356.612000,105.214050 359.045288,107.976028 
z"/>
<path fill="#27445B" opacity="1.000000" stroke="none" 
	d="
M351.062592,99.426414 
	C336.755585,112.861946 322.384155,126.229942 308.181213,139.774582 
	C303.971008,143.789627 300.251617,148.317398 296.276031,152.581070 
	C293.625946,155.423233 293.719025,157.947037 296.520538,160.783112 
	C304.054260,168.409744 304.637146,168.772461 312.335602,161.108658 
	C328.265167,145.250763 343.859558,129.056152 359.878601,112.769814 
	C360.427734,112.843933 360.690033,113.148262 361.175171,113.656754 
	C361.347260,114.362434 361.296570,114.863945 361.159546,115.603668 
	C344.092377,132.959015 327.133240,150.097855 310.085205,167.147842 
	C308.858765,168.374405 307.076050,169.405197 305.393097,169.748779 
	C299.844666,170.881546 296.873901,174.336487 295.567108,179.576355 
	C293.582550,187.533722 290.362305,195.001190 283.039703,199.211288 
	C278.763214,201.669983 273.550873,202.597580 268.673096,203.886749 
	C263.736237,205.191528 258.692719,206.092865 252.612579,207.404663 
	C252.287460,205.450195 251.375427,202.209366 251.267746,198.942047 
	C250.725647,182.492538 264.561493,166.768250 281.009430,164.895859 
	C286.406830,164.281433 289.204803,160.748047 291.357971,155.757736 
	C293.257843,151.354370 296.582764,147.298523 300.062897,143.890182 
	C315.875916,128.403320 331.966339,113.199669 348.527496,97.719894 
	C349.752869,98.172569 350.407715,98.799492 351.062592,99.426414 
M255.976410,188.753387 
	C255.789337,189.206635 255.602264,189.659882 254.785370,190.297424 
	C253.320358,192.982834 253.365784,194.923752 257.018402,195.741425 
	C256.921783,197.216873 256.825165,198.692337 256.728577,200.167786 
	C257.732391,199.720963 258.736176,199.274139 260.302704,199.194046 
	C261.209778,199.785858 262.116882,200.377655 263.927643,200.823029 
	C275.275421,202.341217 283.424957,197.541779 289.867188,187.872650 
	C290.959961,185.550140 292.046356,183.224594 293.147034,180.905838 
	C294.829315,177.361893 294.151123,174.896255 289.819763,173.218918 
	C289.869965,172.498276 289.920135,171.777618 290.658173,170.723892 
	C292.045746,171.511414 293.433350,172.298935 294.467255,172.885727 
	C296.606384,171.218582 298.388916,169.829376 299.855713,168.686203 
	C297.235596,165.742966 295.193390,163.448914 292.754517,160.709274 
	C290.772186,162.655518 289.164856,164.233582 287.803253,165.570419 
	C288.705719,167.872055 289.324982,169.451416 289.175323,171.491119 
	C287.446411,171.301071 285.717529,171.111023 283.719208,170.360153 
	C283.428894,169.810974 283.138580,169.261795 282.645569,168.168579 
	C273.223846,167.251083 260.321747,176.435120 255.795074,187.126755 
	C255.705872,187.226166 255.522537,187.381821 255.542847,187.415802 
	C255.670197,187.628967 255.842941,187.815018 255.976410,188.753387 
z"/>

<path fill="#414E51" opacity="1.000000" stroke="none" 
	d="
M173.198990,93.754379 
	C174.497925,93.268547 175.548889,93.096359 176.872681,93.316467 
	C175.903946,95.229301 174.782501,96.869690 173.402695,98.252251 
	C155.460938,116.229927 137.480469,134.168976 119.517838,152.125824 
	C118.263054,153.380203 117.072067,154.698410 115.851418,155.986938 
	C117.115868,154.968750 118.380310,153.950562 119.644753,152.932388 
	C121.778671,157.059494 123.912582,161.186600 126.089233,165.618713 
	C126.537025,166.353943 126.942085,166.784195 127.368858,167.537445 
	C130.667343,170.600616 133.944107,173.340790 137.595078,176.393906 
	C138.315109,175.718765 139.655518,174.529037 140.921570,173.264862 
	C161.161865,153.054428 181.386810,132.828629 201.638290,112.629433 
	C203.041306,111.230057 204.625519,110.012390 206.125458,108.710220 
	C206.484863,109.455612 206.844269,110.201004 207.198395,111.197250 
	C184.698120,134.125656 162.203125,156.803223 139.819534,179.368469 
	C142.715805,182.072113 145.638611,184.800507 149.100754,188.032394 
	C150.048782,187.163757 151.494278,185.932983 152.834732,184.596848 
	C170.171982,167.315628 187.475174,150.000076 204.870911,132.778000 
	C205.851410,131.807281 207.562271,131.574265 209.003448,131.572937 
	C208.932938,132.662750 208.792191,133.177521 208.651428,133.692291 
	C202.343323,139.840439 195.984894,145.937958 189.737457,152.147141 
	C176.283798,165.518402 162.958252,179.019821 149.389664,192.272827 
	C147.387009,194.228928 144.490814,195.712585 141.754517,196.388397 
	C134.822922,198.100388 127.747200,199.228775 120.350159,200.225021 
	C119.982613,199.271912 119.994118,198.684677 120.370491,197.940765 
	C127.578560,196.425919 134.409973,195.003922 141.269730,193.735306 
	C144.937820,193.056961 145.529022,190.865906 144.261887,187.918930 
	C142.702927,184.293228 139.832535,182.654907 135.840942,183.301102 
	C134.431137,183.529343 133.038101,183.861328 133.040649,183.860809 
	C132.178757,180.029510 132.465271,175.569504 130.402847,173.697922 
	C128.204056,171.702545 123.784569,172.154251 120.384995,171.546631 
	C122.080994,165.740631 121.402275,162.398148 117.451515,160.588654 
	C115.202202,159.558456 112.086243,158.520950 111.349884,162.065445 
	C109.537018,170.791718 108.261261,179.629578 106.431259,188.500092 
	C104.881294,190.062225 103.669586,191.546829 102.457886,193.031448 
	C104.433319,182.239334 106.281685,171.420929 108.502792,160.679611 
	C108.896790,158.774231 110.626053,156.974792 112.103668,155.489487 
	C130.907333,136.587891 149.783615,117.758553 168.619980,98.889442 
	C170.144150,97.362640 171.511047,95.678856 173.198990,93.754379 
z"/>
<path fill="#27445B" opacity="1.000000" stroke="none" 
	d="
M120.005623,198.097427 
	C119.994118,198.684677 119.982613,199.271912 119.958733,200.151871 
	C119.507805,200.576324 119.069260,200.708054 118.096992,200.607162 
	C116.691200,200.731873 115.819122,201.089218 114.947044,201.446564 
	C114.507828,201.576462 114.068611,201.706360 113.095642,201.605026 
	C111.690140,201.728317 110.818398,202.082840 109.946655,202.437363 
	C109.506981,202.567459 109.067314,202.697556 108.093643,202.598495 
	C106.688637,202.720169 105.817642,203.070999 104.946648,203.421844 
	C104.510437,203.555267 104.074234,203.688690 103.156174,203.528778 
	C102.159691,202.167816 101.645058,201.100189 101.130424,200.032562 
	C101.151604,199.579498 101.172783,199.126434 101.610703,198.277374 
	C102.059738,196.931396 102.092026,195.981384 102.124306,195.031387 
	C102.141800,194.574875 102.159302,194.118347 102.317337,193.346649 
	C103.669586,191.546829 104.881294,190.062225 106.757057,188.569244 
	C110.104698,190.881195 112.722183,193.284943 115.500359,195.485855 
	C116.846748,196.552505 118.494377,197.238876 120.005623,198.097427 
z"/>


<path fill="#7FCABD" opacity="1.000000" stroke="none" 
	d="
M346.981964,248.990463 
	C347.957764,249.390015 348.933594,249.789581 350.209839,250.452271 
	C350.510254,250.715408 350.483673,250.754745 350.483673,250.754745 
	C350.483673,250.754745 350.893738,251.024979 351.129700,251.273651 
	C351.365631,251.522339 351.625397,251.902206 351.625397,251.902206 
	C353.793823,254.300766 355.962250,256.699310 358.208435,259.430298 
	C356.557861,260.988464 354.613281,261.997131 353.133331,263.472076 
	C326.104065,290.409760 299.137848,317.410706 272.124084,344.364014 
	C270.741486,345.743530 269.052704,346.816223 267.145477,348.111511 
	C262.585907,344.050232 258.387329,339.909180 254.054474,335.175171 
	C253.948395,334.140656 253.976593,333.699097 254.244110,333.201508 
	C254.483429,333.145447 254.938354,332.959503 255.283417,332.911682 
	C256.083435,332.139191 256.538422,331.414520 257.295654,330.887085 
	C259.198853,332.133698 260.799835,333.183044 262.400787,334.232391 
	C262.723785,333.854889 263.046783,333.477417 263.369751,333.099915 
	C262.285858,331.668304 261.201935,330.236694 260.093445,328.486755 
	C260.048157,327.530029 260.027435,326.891602 260.376221,326.236633 
	C261.155334,325.479584 261.564911,324.739136 262.214905,323.884583 
	C262.639832,323.474548 262.824371,323.178589 263.348999,322.957336 
	C264.312897,322.375549 264.936676,321.719055 265.953979,321.022156 
	C266.609253,320.949707 266.871033,320.917664 267.411072,321.060242 
	C269.220459,322.379028 270.751556,323.523224 272.282654,324.667419 
	C272.653625,324.286102 273.024597,323.904785 273.395569,323.523499 
	C272.291260,321.962189 271.186981,320.400909 270.135742,318.498230 
	C272.500793,315.736176 274.812775,313.315552 277.400848,311.065857 
	C279.316040,312.385712 280.955139,313.534607 282.594208,314.683472 
	C282.987366,314.209717 283.380524,313.735962 283.773682,313.262238 
	C282.167053,311.523895 280.560425,309.785553 279.197510,307.767761 
	C282.050201,307.089020 283.621246,305.877197 283.335876,303.009003 
	C284.271118,302.409180 284.867401,301.746948 285.904419,301.027649 
	C286.634888,300.908569 286.924622,300.846558 287.458435,301.025635 
	C289.237488,302.313232 290.772491,303.359772 292.307495,304.406311 
	C292.667358,303.963593 293.027222,303.520844 293.387085,303.078094 
	C292.231934,301.739380 291.076782,300.400635 290.060303,298.787048 
	C290.815094,297.713654 291.431183,296.915192 292.079102,295.762451 
	C292.016846,294.944153 291.922760,294.480164 292.085419,293.925354 
	C292.560516,293.554596 292.778809,293.274689 293.336060,293.047363 
	C294.258484,292.430481 294.842010,291.761017 295.869812,291.037598 
	C296.606995,290.926971 296.899902,290.870331 297.437347,291.051758 
	C299.215515,292.326141 300.749207,293.362457 302.282867,294.398773 
	C302.623016,293.963470 302.963165,293.528198 303.303284,293.092896 
	C301.144440,290.656097 298.985565,288.219330 296.826691,285.782562 
	C297.060974,285.530121 297.295258,285.277679 297.529572,285.025238 
	C298.734161,285.625397 299.938751,286.225525 300.921387,286.715057 
	C302.558533,284.646393 303.960175,282.875336 305.817535,281.052002 
	C306.572296,280.946777 306.871307,280.893829 307.437836,281.032593 
	C308.443146,281.211029 309.181000,281.197662 309.918823,281.184296 
	C309.678070,280.182373 309.437317,279.180450 309.516022,278.097473 
	C310.285278,277.593933 310.735138,277.171478 311.425171,276.357819 
	C311.784454,275.684784 311.903534,275.402924 312.192352,274.990784 
	C312.575928,274.332611 312.789825,273.804657 313.401794,273.280365 
	C317.119537,269.662537 319.655212,274.153442 324.145996,274.702667 
	C321.699677,271.637299 320.092590,269.623474 318.631287,267.792358 
	C319.759064,266.863617 320.896515,265.926941 322.254883,264.859253 
	C322.654236,264.265106 322.832733,263.801941 323.412598,263.329041 
	C327.137665,259.517395 329.606049,264.184387 333.499664,264.672577 
	C331.698395,261.613098 330.333069,259.294067 329.334320,256.908386 
	C330.457977,255.883789 331.215057,254.925812 332.318787,253.830765 
	C333.337799,252.574387 334.010132,251.455093 334.833893,250.178558 
	C334.985291,250.021332 335.296295,249.714951 335.584229,249.897278 
	C337.736969,251.584488 339.601715,253.089386 341.466492,254.594284 
	C341.837769,254.203629 342.209045,253.812973 342.580322,253.422318 
	C341.979645,252.354477 341.378998,251.286621 340.830383,249.821472 
	C341.390350,248.587448 341.898254,247.750748 342.406158,246.914032 
	C342.406158,246.914047 342.810669,246.902893 343.144928,247.197983 
	C343.944153,247.662460 344.409119,247.831848 344.874084,248.001236 
	C345.116882,248.014908 345.359680,248.028595 346.041901,248.311737 
	C346.652710,248.712082 346.819580,248.848511 346.981964,248.990463 
M311.457336,283.799194 
	C311.693787,283.469421 311.930237,283.139648 312.166687,282.809845 
	C311.840332,282.596802 311.513977,282.383728 311.187622,282.170685 
	C311.050751,282.540955 310.913879,282.911224 311.457336,283.799194 
z"/>
<path fill="#27445B" opacity="1.000000" stroke="none" 
	d="
M322.033966,264.990234 
	C320.896515,265.926941 319.759064,266.863617 318.631287,267.792358 
	C320.092590,269.623474 321.699677,271.637299 324.145996,274.702667 
	C319.655212,274.153442 317.119537,269.662537 313.256226,272.946899 
	C311.474640,272.072784 310.236725,271.535828 308.978607,270.978455 
	C308.958435,270.958069 308.917969,270.917419 308.917969,270.917419 
	C309.737000,269.963898 310.556061,269.010376 311.860474,268.331635 
	C313.411194,269.432495 314.476532,270.258575 315.541901,271.084656 
	C315.829956,270.693787 316.117981,270.302917 316.406036,269.912048 
	C315.269440,268.938690 314.132843,267.965363 312.996246,266.992035 
	C314.743073,265.007263 316.489868,263.022491 318.593109,260.993713 
	C318.949554,260.949738 318.987396,260.988281 319.009277,261.319458 
	C320.032135,262.763824 321.033051,263.877045 322.033966,264.990234 
z"/>
<path fill="#27445B" opacity="1.000000" stroke="none" 
	d="
M305.361816,281.104279 
	C303.960175,282.875336 302.558533,284.646393 300.921387,286.715057 
	C299.938751,286.225525 298.734161,285.625397 297.529572,285.025238 
	C297.295258,285.277679 297.060974,285.530121 296.826691,285.782562 
	C298.985565,288.219330 301.144440,290.656097 303.303284,293.092896 
	C302.963165,293.528198 302.623016,293.963470 302.282867,294.398773 
	C300.749207,293.362457 299.215515,292.326141 297.350037,290.735046 
	C295.677673,289.122070 294.337097,288.063873 292.996521,287.005676 
	C295.797241,284.024323 298.597961,281.042969 301.869934,278.305054 
	C303.348114,279.400421 304.354980,280.252350 305.361816,281.104279 
M300.801819,281.614594 
	C300.587524,281.608734 300.373260,281.602905 300.158966,281.597076 
	C300.262878,281.709412 300.366791,281.821777 300.801819,281.614594 
z"/>
<path fill="#4FA3A5" opacity="1.000000" stroke="none" 
	d="
M277.124756,310.894897 
	C274.812775,313.315552 272.500793,315.736176 269.820679,318.401001 
	C268.255005,317.096802 267.057465,315.548340 265.859924,313.999908 
	C268.684479,311.385712 271.509033,308.771515 274.666687,306.078613 
	C274.999756,305.999878 274.978516,305.977264 274.975037,306.326324 
	C275.689270,308.081879 276.406982,309.488403 277.124756,310.894897 
z"/>
<path fill="#27445B" opacity="1.000000" stroke="none" 
	d="
M334.682495,250.335800 
	C334.010132,251.455093 333.337799,252.574387 332.333099,253.847534 
	C332.000763,254.001404 332.029877,254.034515 332.039917,253.717087 
	C331.688477,253.256470 331.326996,253.113297 330.980835,252.985840 
	C330.996185,253.001587 331.024658,253.035065 331.111877,252.703796 
	C330.501923,251.945099 329.804810,251.517670 329.065582,251.052399 
	C329.023499,251.014526 328.941345,250.936630 328.941345,250.936630 
	C329.933838,249.242935 330.926300,247.549240 331.966003,245.527374 
	C332.795471,245.110931 333.577759,245.022690 334.869995,245.318405 
	C337.179413,247.207840 338.978851,248.713303 340.778320,250.218781 
	C341.378998,251.286621 341.979645,252.354477 342.580322,253.422318 
	C342.209045,253.812973 341.837769,254.203629 341.466492,254.594284 
	C339.601715,253.089386 337.736969,251.584488 335.474274,249.674469 
	C334.881104,248.973969 334.609436,248.793701 334.109436,248.530472 
	C333.726013,248.353012 333.494476,248.373642 333.262939,248.394287 
	C333.407288,248.696335 333.551666,248.998398 333.788086,249.532745 
	C334.088501,250.038422 334.355957,250.228668 334.682495,250.335800 
z"/>
<path fill="#27445B" opacity="1.000000" stroke="none" 
	d="
M328.967773,256.975037 
	C330.333069,259.294067 331.698395,261.613098 333.499664,264.672577 
	C329.606049,264.184387 327.137665,259.517395 323.265930,262.991516 
	C321.474365,262.105225 320.230865,261.546753 318.987396,260.988281 
	C318.987396,260.988281 318.949554,260.949738 318.929626,260.930237 
	C319.880493,259.943420 320.851288,258.976105 322.265991,258.351013 
	C323.595520,259.494843 324.481201,260.296387 325.366882,261.097961 
	C325.679993,260.680603 325.993103,260.263245 326.306213,259.845917 
	C325.197510,259.059418 324.088837,258.272949 322.980133,257.486481 
	C323.747894,256.336212 324.515656,255.185974 325.646484,254.023376 
	C326.009521,254.011032 326.084625,254.087509 326.141907,254.342255 
	C326.478088,254.741730 326.756989,254.886444 327.018860,255.014999 
	C327.001801,254.998825 326.968506,254.965668 326.967529,255.278442 
	C327.322174,255.737640 327.677795,255.884079 328.017273,256.014709 
	C328.001160,255.998901 327.969635,255.966568 327.965240,256.280975 
	C328.318390,256.740326 328.675903,256.885284 329.017334,257.016052 
	C329.001251,257.001831 328.967743,256.975037 328.967773,256.975037 
z"/>
<path fill="#27445B" opacity="1.000000" stroke="none" 
	d="
M260.118011,328.805084 
	C261.201935,330.236694 262.285858,331.668304 263.369751,333.099915 
	C263.046783,333.477417 262.723785,333.854889 262.400787,334.232391 
	C260.799835,333.183044 259.198853,332.133698 257.123993,330.644104 
	C256.008636,330.471344 255.367203,330.738831 254.369354,331.016113 
	C253.536179,331.071136 253.059402,331.116364 252.420044,331.085388 
	C252.069611,330.859100 251.916016,330.679657 251.796677,330.470917 
	C251.953140,328.133667 251.834259,325.576538 256.092041,326.087463 
	C257.896484,327.078156 259.007233,327.941620 260.118011,328.805084 
z"/>

<path fill="#27445B" opacity="1.000000" stroke="none" 
	d="
M265.560455,321.062531 
	C264.936676,321.719055 264.312897,322.375549 263.223145,322.656250 
	C261.831787,321.847412 260.906403,321.414368 259.948730,320.944275 
	C259.916412,320.907196 259.855042,320.830383 259.855042,320.830383 
	C260.653564,319.572205 261.452087,318.314056 262.590149,316.992981 
	C262.929749,316.930054 262.974701,316.975006 262.957092,317.339905 
	C263.813141,318.824036 264.686798,319.943298 265.560455,321.062531 
z"/>
<path fill="#27445B" opacity="1.000000" stroke="none" 
	d="
M291.828644,294.016174 
	C291.922760,294.480164 292.016846,294.944153 291.705872,295.760254 
	C289.536774,295.411163 287.772766,294.709961 286.008728,294.008759 
	C286.008728,294.008759 285.966644,293.966919 285.945129,293.945435 
	C286.721130,292.970459 287.518707,292.016998 288.759705,291.317963 
	C290.078308,292.386963 290.953491,293.201569 291.828644,294.016174 
z"/>
<path fill="#27445B" opacity="1.000000" stroke="none" 
	d="
M261.974518,323.998718 
	C261.564911,324.739136 261.155334,325.479584 260.231262,325.902161 
	C258.472565,325.041504 257.228363,324.498657 255.984146,323.955841 
	C257.042297,322.951874 258.100433,321.947876 259.506805,320.887146 
	C259.855042,320.830383 259.916412,320.907196 259.893951,321.273224 
	C260.572510,322.425751 261.273499,323.212219 261.974518,323.998718 
z"/>
<path fill="#4FA3A5" opacity="1.000000" stroke="none" 
	d="
M251.500031,330.377502 
	C251.916016,330.679657 252.069611,330.859100 252.603577,331.347839 
	C253.301407,332.210144 253.653107,332.733856 254.004791,333.257568 
	C253.976593,333.699097 253.948395,334.140656 253.856842,334.910156 
	C252.534592,334.237305 251.226624,333.286346 250.086975,332.164398 
	C249.962601,332.041962 250.807846,330.934570 251.500031,330.377502 
z"/>
<path fill="#27445B" opacity="1.000000" stroke="none" 
	d="
M295.425537,291.091553 
	C294.842010,291.761017 294.258484,292.430481 293.228455,292.759766 
	C291.854095,291.651367 290.926208,290.883118 289.998322,290.114899 
	C290.481720,289.435455 290.965118,288.756042 291.911407,288.311737 
	C293.391388,289.395111 294.408478,290.243317 295.425537,291.091553 
z"/>
<path fill="#27445B" opacity="1.000000" stroke="none" 
	d="
M283.335876,303.009003 
	C282.184235,302.072784 281.371552,301.199005 280.275360,300.215332 
	C280.488770,299.427124 280.985657,298.748718 281.945312,298.308044 
	C283.426605,299.392059 284.445160,300.238403 285.463684,301.084717 
	C284.867401,301.746948 284.271118,302.409180 283.335876,303.009003 
z"/>
<path fill="#4FA3A5" opacity="1.000000" stroke="none" 
	d="
M295.869812,291.037598 
	C294.408478,290.243317 293.391388,289.395111 292.254974,288.272278 
	C292.245941,287.715912 292.415955,287.476562 292.821106,287.142639 
	C294.337097,288.063873 295.677673,289.122070 297.105530,290.496948 
	C296.899902,290.870331 296.606995,290.926971 295.869812,291.037598 
z"/>
<path fill="#4FA3A5" opacity="1.000000" stroke="none" 
	d="
M302.815338,277.134460 
	C304.331268,278.066284 305.666229,279.135345 307.085754,280.522644 
	C306.871307,280.893829 306.572296,280.946777 305.817535,281.052002 
	C304.354980,280.252350 303.348114,279.400421 302.221619,278.273071 
	C302.221649,277.713257 302.399109,277.471283 302.815338,277.134460 
z"/>
<path fill="#27445B" opacity="1.000000" stroke="none" 
	d="
M312.022644,275.121033 
	C311.903534,275.402924 311.784454,275.684784 311.092896,276.155914 
	C309.009705,275.559387 307.498962,274.773560 305.988220,273.987732 
	C305.988220,273.987732 305.949310,273.950287 305.929504,273.930664 
	C306.695007,272.955902 307.480347,272.000732 308.591827,270.981506 
	C308.917969,270.917419 308.958435,270.958069 309.018768,271.344116 
	C310.060303,272.860474 311.041473,273.990753 312.022644,275.121033 
z"/>
<path fill="#4FA3A5" opacity="1.000000" stroke="none" 
	d="
M285.904419,301.027649 
	C284.445160,300.238403 283.426605,299.392059 282.291229,298.272034 
	C282.272614,297.717133 282.433685,297.478333 282.827209,297.143890 
	C284.342712,298.055328 285.688690,299.104858 287.124481,300.469482 
	C286.924622,300.846558 286.634888,300.908569 285.904419,301.027649 
z"/>
<path fill="#4FA3A5" opacity="1.000000" stroke="none" 
	d="
M255.998322,324.285461 
	C257.228363,324.498657 258.472565,325.041504 259.861755,325.918762 
	C260.027435,326.891602 260.048157,327.530029 260.093445,328.486755 
	C259.007233,327.941620 257.896484,327.078156 256.527039,326.061005 
	C256.183075,325.476562 256.097809,325.045837 255.998322,324.285461 
z"/>
<path fill="#4FA3A5" opacity="1.000000" stroke="none" 
	d="
M289.801453,290.225525 
	C290.926208,290.883118 291.854095,291.651367 292.889557,292.707153 
	C292.778809,293.274689 292.560516,293.554596 292.085419,293.925354 
	C290.953491,293.201569 290.078308,292.386963 289.096436,291.284332 
	C289.160522,290.744415 289.365479,290.524353 289.801453,290.225525 
z"/>
<path fill="#4FA3A5" opacity="1.000000" stroke="none" 
	d="
M312.808228,267.128845 
	C314.132843,267.965363 315.269440,268.938690 316.406036,269.912048 
	C316.117981,270.302917 315.829956,270.693787 315.541901,271.084656 
	C314.476532,270.258575 313.411194,269.432495 312.201019,268.301636 
	C312.191193,267.712250 312.379181,267.468536 312.808228,267.128845 
z"/>


<path fill="#EC9F7F" opacity="1.000000" stroke="none" 
	d="
M206.091370,108.375183 
	C204.625519,110.012390 203.041306,111.230057 201.638290,112.629433 
	C181.386810,132.828629 161.161865,153.054428 140.921570,173.264862 
	C139.655518,174.529037 138.315109,175.718765 137.595078,176.393906 
	C133.944107,173.340790 130.667343,170.600616 127.645012,167.366776 
	C146.023682,148.760986 164.163544,130.664459 182.261658,112.526260 
	C187.074661,107.702606 191.759552,102.751122 196.503265,97.858322 
	C199.687912,101.252258 202.872589,104.646202 206.091370,108.375183 
z"/>
<path fill="#EC9F7F" opacity="1.000000" stroke="none" 
	d="
M126.046494,165.313721 
	C123.912582,161.186600 121.778671,157.059494 119.644753,152.932388 
	C118.380310,153.950562 117.115868,154.968750 115.851418,155.986938 
	C117.072067,154.698410 118.263054,153.380203 119.517838,152.125824 
	C137.480469,134.168976 155.460938,116.229927 173.402695,98.252251 
	C174.782501,96.869690 175.903946,95.229301 177.220398,93.358444 
	C178.607071,92.936790 179.918854,92.865456 181.613556,92.669693 
	C185.931030,93.723427 189.865570,94.901566 193.840118,96.670990 
	C171.268921,119.946091 148.657715,142.629913 126.046494,165.313721 
z"/>
<path fill="#2C4159" opacity="1.000000" stroke="none" 
	d="
M126.089233,165.618713 
	C148.657715,142.629913 171.268921,119.946091 194.073578,96.945969 
	C194.864761,96.875404 195.462509,97.121140 196.281769,97.612595 
	C191.759552,102.751122 187.074661,107.702606 182.261658,112.526260 
	C164.163544,130.664459 146.023682,148.760986 127.623299,167.043793 
	C126.942085,166.784195 126.537025,166.353943 126.089233,165.618713 
z"/>
<path fill="#4FA3A5" opacity="1.000000" stroke="none" 
	d="
M340.830383,249.821472 
	C338.978851,248.713303 337.179413,247.207840 335.256958,245.418137 
	C337.423889,245.504913 339.713776,245.875946 342.204926,246.580505 
	C341.898254,247.750748 341.390350,248.587448 340.830383,249.821472 
z"/>
<path fill="#4FA3A5" opacity="1.000000" stroke="none" 
	d="
M344.727966,247.789093 
	C344.409119,247.831848 343.944153,247.662460 343.306976,247.319183 
	C343.617126,247.289169 344.099487,247.433044 344.727966,247.789093 
z"/>
<path fill="#4FA3A5" opacity="1.000000" stroke="none" 
	d="
M346.914612,248.828674 
	C346.819580,248.848511 346.652710,248.712082 346.369629,248.471893 
	C346.512329,248.351700 346.708771,248.453125 346.914612,248.828674 
z"/>
<path fill="#4FA3A5" opacity="1.000000" stroke="none" 
	d="
M350.505676,250.723053 
	C350.483673,250.754745 350.510254,250.715408 350.513763,250.724182 
	C350.517273,250.732971 350.527649,250.691345 350.505676,250.723053 
z"/>
<path fill="#4FA3A5" opacity="1.000000" stroke="none" 
	d="
M351.611877,251.771133 
	C351.625397,251.902206 351.365631,251.522339 351.257874,251.483093 
	C351.348907,251.396881 351.498352,251.462280 351.611877,251.771133 
z"/>
<path fill="#EEBD4A" opacity="1.000000" stroke="none" 
	d="
M289.970306,171.056976 
	C289.920135,171.777618 289.869965,172.498276 289.703369,173.869034 
	C286.439636,181.884567 280.255920,185.820786 273.519318,189.455933 
	C268.656525,192.079971 264.314362,195.668777 259.739990,198.827301 
	C258.736176,199.274139 257.732391,199.720963 256.728577,200.167786 
	C256.825165,198.692337 256.921783,197.216873 257.363708,195.230148 
	C259.306061,192.413940 260.502014,189.631638 262.573395,187.891205 
	C269.543854,182.034561 276.825836,176.548691 283.988617,170.920990 
	C285.717529,171.111023 287.446411,171.301071 289.583618,171.250107 
	C289.991943,171.009094 289.970306,171.056976 289.970306,171.056976 
z"/>
<path fill="#EEBD4A" opacity="1.000000" stroke="none" 
	d="
M289.190826,188.033798 
	C283.424957,197.541779 275.275421,202.341217 263.435974,200.541473 
	C266.249176,197.708496 269.492950,195.072723 272.873016,192.625168 
	C278.150604,188.803574 283.515259,185.101929 288.857544,181.370224 
	C289.593140,180.856400 290.411926,180.461655 291.746429,179.692261 
	C290.705353,183.090302 289.948090,185.562057 289.190826,188.033798 
z"/>
<path fill="#414E51" opacity="1.000000" stroke="none" 
	d="
M289.528992,187.953217 
	C289.948090,185.562057 290.705353,183.090302 291.746429,179.692261 
	C290.411926,180.461655 289.593140,180.856400 288.857544,181.370224 
	C283.515259,185.101929 278.150604,188.803574 272.873016,192.625168 
	C269.492950,195.072723 266.249176,197.708496 262.984131,200.614685 
	C262.116882,200.377655 261.209778,199.785858 260.021362,199.010681 
	C264.314362,195.668777 268.656525,192.079971 273.519318,189.455933 
	C280.255920,185.820786 286.439636,181.884567 289.800903,174.256042 
	C294.151123,174.896255 294.829315,177.361893 293.147034,180.905838 
	C292.046356,183.224594 290.959961,185.550140 289.528992,187.953217 
z"/>
<path fill="#EEBD4A" opacity="1.000000" stroke="none" 
	d="
M255.415207,190.113129 
	C255.602264,189.659882 255.789337,189.206635 256.115845,188.145218 
	C256.231323,187.359680 256.207367,187.182312 256.183441,187.004944 
	C260.321747,176.435120 273.223846,167.251083 282.398254,168.497803 
	C279.093994,171.099258 275.961182,173.277237 272.996124,175.663651 
	C267.087036,180.419540 261.270172,185.289993 255.415207,190.113129 
z"/>
<path fill="#414E51" opacity="1.000000" stroke="none" 
	d="
M255.100281,190.205276 
	C261.270172,185.289993 267.087036,180.419540 272.996124,175.663651 
	C275.961182,173.277237 279.093994,171.099258 282.499603,168.769821 
	C283.138580,169.261795 283.428894,169.810974 283.853912,170.640564 
	C276.825836,176.548691 269.543854,182.034561 262.573395,187.891205 
	C260.502014,189.631638 259.306061,192.413940 257.415039,194.877472 
	C253.365784,194.923752 253.320358,192.982834 255.100281,190.205276 
z"/>
<path fill="#85CFC1" opacity="1.000000" stroke="none" 
	d="
M289.968079,171.019928 
	C289.324982,169.451416 288.705719,167.872055 287.803253,165.570419 
	C289.164856,164.233582 290.772186,162.655518 292.754517,160.709274 
	C295.193390,163.448914 297.235596,165.742966 299.855713,168.686203 
	C298.388916,169.829376 296.606384,171.218582 294.467255,172.885727 
	C293.433350,172.298935 292.045746,171.511414 290.314240,170.890442 
	C289.970306,171.056976 289.991943,171.009094 289.968079,171.019928 
z"/>
<path fill="#414E51" opacity="1.000000" stroke="none" 
	d="
M255.989258,187.065857 
	C256.207367,187.182312 256.231323,187.359680 256.127991,187.773544 
	C255.842941,187.815018 255.670197,187.628967 255.542847,187.415802 
	C255.522537,187.381821 255.705872,187.226166 255.989258,187.065857 
z"/>
<path fill="#EBD7B0" opacity="1.000000" stroke="none" 
	d="
M120.370491,197.940765 
	C118.494377,197.238876 116.846748,196.552505 115.500359,195.485855 
	C112.722183,193.284943 110.104698,190.881195 107.095322,188.491730 
	C108.261261,179.629578 109.537018,170.791718 111.349884,162.065445 
	C112.086243,158.520950 115.202202,159.558456 117.451515,160.588654 
	C121.402275,162.398148 122.080994,165.740631 120.384995,171.546631 
	C123.784569,172.154251 128.204056,171.702545 130.402847,173.697922 
	C132.465271,175.569504 132.178757,180.029510 133.040649,183.860809 
	C133.038101,183.861328 134.431137,183.529343 135.840942,183.301102 
	C139.832535,182.654907 142.702927,184.293228 144.261887,187.918930 
	C145.529022,190.865906 144.937820,193.056961 141.269730,193.735306 
	C134.409973,195.003922 127.578560,196.425919 120.370491,197.940765 
z"/>
<path fill="#27445B" opacity="1.000000" stroke="none" 
	d="
M274.975037,306.326324 
	C276.110107,306.564362 277.241730,307.151459 278.663574,307.892883 
	C280.560425,309.785553 282.167053,311.523895 283.773682,313.262238 
	C283.380524,313.735962 282.987366,314.209717 282.594208,314.683472 
	C280.955139,313.534607 279.316040,312.385712 277.400818,311.065857 
	C276.406982,309.488403 275.689270,308.081879 274.975037,306.326324 
z"/>
<path fill="#4FA3A5" opacity="1.000000" stroke="none" 
	d="
M286.013733,294.346924 
	C287.772766,294.709961 289.536774,295.411163 291.674011,296.114563 
	C291.431183,296.915192 290.815094,297.713654 290.060303,298.787048 
	C288.620667,297.602997 287.319702,296.144043 286.013733,294.346924 
z"/>
<path fill="#4FA3A5" opacity="1.000000" stroke="none" 
	d="
M305.979553,274.321472 
	C307.498962,274.773560 309.009705,275.559387 310.852722,276.547089 
	C310.735138,277.171478 310.285278,277.593933 309.516022,278.097473 
	C308.121368,277.004059 307.046143,275.829620 305.979553,274.321472 
z"/>
<path fill="#4FA3A5" opacity="1.000000" stroke="none" 
	d="
M319.009277,261.319458 
	C320.230865,261.546753 321.474365,262.105225 322.864502,263.001251 
	C322.832733,263.801941 322.654236,264.265106 322.254883,264.859253 
	C321.033051,263.877045 320.032135,262.763824 319.009277,261.319458 
z"/>
<path fill="#4FA3A5" opacity="1.000000" stroke="none" 
	d="
M265.953979,321.022156 
	C264.686798,319.943298 263.813141,318.824036 262.979187,317.362762 
	C264.351105,318.087097 265.683319,319.153473 267.074158,320.552734 
	C266.871033,320.917664 266.609253,320.949707 265.953979,321.022156 
z"/>
<path fill="#4FA3A5" opacity="1.000000" stroke="none" 
	d="
M312.192352,274.990784 
	C311.041473,273.990753 310.060303,272.860474 309.038940,271.364532 
	C310.236725,271.535828 311.474640,272.072784 312.858154,272.943237 
	C312.789825,273.804657 312.575928,274.332611 312.192352,274.990784 
z"/>
<path fill="#4FA3A5" opacity="1.000000" stroke="none" 
	d="
M262.214905,323.884583 
	C261.273499,323.212219 260.572510,322.425751 259.926270,321.310303 
	C260.906403,321.414368 261.831787,321.847412 262.883057,322.581543 
	C262.824371,323.178589 262.639832,323.474548 262.214905,323.884583 
z"/>
<path fill="#4FA3A5" opacity="1.000000" stroke="none" 
	d="
M254.725754,331.006287 
	C255.367203,330.738831 256.008636,330.471344 256.821716,330.446899 
	C256.538422,331.414520 256.083435,332.139191 255.268433,332.583069 
	C254.847504,331.870300 254.786621,331.438293 254.725754,331.006287 
z"/>
<path fill="#2C4159" opacity="1.000000" stroke="none" 
	d="
M254.369354,331.016113 
	C254.786621,331.438293 254.847504,331.870300 254.923370,332.630920 
	C254.938354,332.959503 254.483429,333.145447 254.244110,333.201508 
	C253.653107,332.733856 253.301407,332.210144 252.766174,331.424011 
	C253.059402,331.116364 253.536179,331.071136 254.369354,331.016113 
z"/>
<path fill="#27445B" opacity="1.000000" stroke="none" 
	d="
M311.117188,283.540344 
	C310.913879,282.911224 311.050751,282.540955 311.187622,282.170685 
	C311.513977,282.383728 311.840332,282.596802 312.166687,282.809845 
	C311.930237,283.139648 311.693787,283.469421 311.117188,283.540344 
z"/>
<path fill="#7FCABD" opacity="1.000000" stroke="none" 
	d="
M300.636261,281.774353 
	C300.366791,281.821777 300.262878,281.709412 300.158966,281.597076 
	C300.373260,281.602905 300.587524,281.608734 300.636261,281.774353 
z"/>
<path fill="#7FCABD" opacity="1.000000" stroke="none" 
	d="
M331.111877,252.703796 
	C330.438049,252.577499 329.851410,252.119919 329.186218,251.376312 
	C329.804810,251.517670 330.501923,251.945099 331.111877,252.703796 
z"/>
<path fill="#7FCABD" opacity="1.000000" stroke="none" 
	d="
M334.833893,250.178558 
	C334.355957,250.228668 334.088501,250.038422 333.929810,249.390137 
	C333.979462,249.015244 334.261353,248.728561 334.261353,248.728561 
	C334.609436,248.793701 334.881104,248.973969 335.186340,249.492157 
	C335.296295,249.714951 334.985291,250.021332 334.833893,250.178558 
z"/>
<path fill="#7FCABD" opacity="1.000000" stroke="none" 
	d="
M333.837738,249.157852 
	C333.551666,248.998398 333.407288,248.696335 333.262939,248.394287 
	C333.494476,248.373642 333.726013,248.353012 334.109436,248.530472 
	C334.261353,248.728561 333.979462,249.015244 333.837738,249.157852 
z"/>
<path fill="#7FCABD" opacity="1.000000" stroke="none" 
	d="
M332.039917,253.717087 
	C331.699799,253.872406 331.369751,253.710312 331.002563,253.259155 
	C331.326996,253.113297 331.688477,253.256470 332.039917,253.717087 
z"/>
<path fill="#4FA3A5" opacity="1.000000" stroke="none" 
	d="
M322.877319,257.634277 
	C324.088837,258.272949 325.197510,259.059418 326.306213,259.845917 
	C325.993103,260.263245 325.679993,260.680603 325.366882,261.097961 
	C324.481201,260.296387 323.595520,259.494843 322.593140,258.338593 
	C322.476440,257.983917 322.774536,257.782043 322.877319,257.634277 
z"/>
<path fill="#7FCABD" opacity="1.000000" stroke="none" 
	d="
M326.141907,254.342255 
	C326.425964,254.137238 326.713165,254.289291 326.991028,254.787415 
	C326.756989,254.886444 326.478088,254.741730 326.141907,254.342255 
z"/>
<path fill="#7FCABD" opacity="1.000000" stroke="none" 
	d="
M326.967529,255.278442 
	C327.304688,255.124100 327.640839,255.282532 328.005219,255.735733 
	C327.677795,255.884079 327.322174,255.737640 326.967529,255.278442 
z"/>
<path fill="#7FCABD" opacity="1.000000" stroke="none" 
	d="
M327.965240,256.280975 
	C328.305634,256.124695 328.641602,256.282806 329.005524,256.735596 
	C328.675903,256.885284 328.318390,256.740326 327.965240,256.280975 
z"/>
</svg>
