<svg version="1.0" id="Layer_1" xmlns="http://www.w3.org/2000/svg" xmlns:xlink="http://www.w3.org/1999/xlink" x="0px" y="0px" width="315.006px" height="214.779px" viewBox="0 0 315.006 214.779" enable-background="new 0 0 315.006 214.779" xml:space="preserve">
<path fill="#FFFFFF" d="M15.924,78.259c0.139,0.246,0.271,0.367,0.401,0.484c0.396,0.361,0.786,0.595,1.161,0.579  c0.642,0.22,1.391,0.06,1.877-0.34c0.611-0.406,0.84-0.923,0.942-1.432c0.223-0.641,0.187-1.394-0.22-2.007  C10.814,60.591-0.376,9.788,17.24,8.966c20.133-0.935,20.104,20.125,18.139,53.761c-2.226,36.17-6.03,68.25,13.098,67.36  c21.642-1.006,36.625-36.761,41.713-71.048c10.064-0.466,21.586-4.909,27.922-23.24c0.444-1.278,0.142-2.402-1.153-3.099  c-1.293-0.696-2.911-0.241-3.349,1.167c-4.049,13.303-12.552,20.256-22.522,20.089C93.82,36.805,95.73-0.737,79.623,0.01  c-20.51,0.956-18.809,56.487,5.396,59.019c-3.847,25.781-18.419,62.144-30.499,62.707c-8.18,0.379-6.117-28.466-4.144-59.204  c2.47-39.081,0.66-61.694-29.037-60.313C-5.21,3.455,2.698,43.312,10.403,65.275 M85.923,54.07  C69.187,54.849,65.008,5.733,79.857,5.044C90.931,4.53,88.239,38.828,85.923,54.07z"/>
<path fill="#FFFFFF" d="M287.274,70.04c-4.853,9.905-7.559,19.163-12.859,19.411c-2.587,0.117,7.311-53.771,10.828-66.062  c1.314-3.878-14.866-6.122-15.987-0.892c-0.713,2.351-1.534,5.113-2.489,8.021c-3.594-6.919-9.953-11.804-21.346-10.591  c-14.624,1.525-22.591,21.023-22.617,37.53c-3.418,7.581-7.325,13.352-11.464,17.891c0.373-18.416,0.011-26.17-1.064-49.287  c-0.392-8.434-16.206-8.514-15.598,4.542c-3.441-3.657-8.546-7.918-18.202-7.469c-12.562,0.583-20.188,15.061-22.135,29.734  c-8.279,25.765-19.073,43.873-25.531,44.174c-6.529,0.303-6.509-25.59-7.016-36.474c8.435-0.391,35.452-37.766,8.251-36.501  c-14.143,0.662-22.294,15.896-21.532,32.215c0.783,16.863,0.551,46.995,19.454,46.117c6.729-0.312,17.031-12.185,26.43-34.774  c1.514,9.494,6.123,16.631,14.14,16.259c11.561-0.54,17.851-8.876,27.016-28.653c0.164,12.396-0.239,21.272-1.194,32.903  c-23.78,13.236-48.583,25.021-37.854,47.69c9.307,18.375,33.088,16.858,44.188-2.329c5.573-9.117,9.161-25.776,10.338-50.227  c5.246-4.121,9.486-9.166,13.006-15.258c1.984,7.641,6.392,12.993,13.442,12.662c11.563-0.538,19.223-11.659,24.222-21.432  c-2.752,20.026-2.927,39.662,9.722,39.072c10.337-0.48,14.398-12.803,21.367-27.026 M134.642,32.031  c8.433-0.393-5.503,22.335-12.665,23.624C123.246,36.104,132.466,32.132,134.642,32.031z M185.121,129.856  c-8.096,13.461-16.59,15.492-23.679,3.688c-8.703-14.178,11.316-29.146,32.265-38.845  C192.159,111.266,189.307,123.119,185.121,129.856z M175.629,75.235c-7.479,0.349-3.734-45.074,5.784-45.516  c5.986-0.279,11.295,5.468,13.763,11.624C189.375,57.288,181.066,74.983,175.629,75.235z M244.573,72.029  c-7.479,0.347-3.733-45.074,5.786-45.521c5.986-0.277,11.297,5.473,13.76,11.629C258.323,54.079,250.013,71.776,244.573,72.029z"/>
<path fill="#FFFFFF" d="M58.224,165.046c1.267-7.645,4.974-14.064,11.896-15.924c7.747-2.079,10.422,2.519,13.509,5.792  c-4.427-33.028-8.729-64.766,9.862-69.748c6.921-1.86,12.276,4.897,13.99,12.524c3.006,13.261,1.811,42.258-10.01,56.39  c2.827,22.936,7.154,44.026,11.596,42.832c6.098-1.626,9.588-31.133,11.172-46.285c0.058-2.671-0.094-4.072,2.289-4.261  c2.437,0.004,2.24,2.168,1.971,4.449c-1.424,23.193-6.517,51.686-19.016,55.037l-0.102,0.024c-4.855,1.304-9.029-1.452-12.084-8.723  c-1.51-3.574-2.916-8.396-4.139-14.607c-3.358,8.543-9.798,14.254-16.305,16.002c-8.06,2.164-14.352-10.988-15.146-24.284   M86.868,166.999c-4.846-7.335-6.885-12.882-11.64-11.604c-4.854,1.302-5.476,16.749-3.033,25.84  c1.495,5.577,3.695,9.632,6.07,8.995c4.75-1.272,8.113-12.25,9.321-17.664l-0.69-5.465L86.868,166.999z M96.137,147.457  c8.001-13.103,9.389-38.056,7.152-48.864c-0.814-3.875-2.135-8.392-4.919-7.205C86.86,96.355,94.699,134.669,96.137,147.457z"/>
<path fill="#FFFFFF" d="M112.173,147.067c-0.531-13.567,6.343-26.186,18.106-26.643c22.622-0.88-0.076,30.02-7.089,30.294  c0.349,9.045,0.162,30.577,5.596,30.366c6.105-0.233,17.024-19.576,24.279-45.689c0.8-2.752,0.849-4.45,3.359-3.866  c2.521,0.583,1.691,2.766,0.987,5.061c-9.409,31.856-22.013,48.655-29.363,48.947C112.327,186.141,112.712,161.093,112.173,147.067z   M134.051,127.077c-1.809,0.066-9.496,3.311-10.681,19.561C129.335,145.61,141.064,126.802,134.051,127.077z"/>
<path fill="#FFFFFF" d="M146.36,188.101c-0.438-11.361,9.231-22.766,20.581-32.284c-10.701-9.234-21.923-17.074-22.308-27.053  c-1.232-31.666,35.3-31.813,35.689-6.898c0.092,5.398-0.96,4.863-2.908,4.938c-3.899,0.151-3.639-1.931-3.882-5.364  c-1.296-15.575-15.006-7.688-14.627,2.061c0.436,11.359,14.314,19.548,18.16,23.887c8.567-7.117,16.819-13.644,18.882-22.681  c0.29-1.28,1.535-1.899,2.812-1.485c1.512,0.51,2.008,1.41,1.497,2.927c-3.101,9.081-11.153,17.55-20.302,24.8  c4.58,5.338,7.213,13.966,7.517,21.882c0.589,15.144-12.652,29.22-26.762,29.762C151.648,202.944,146.737,197.734,146.36,188.101z   M173.745,174.285c-0.238-5.968-1.332-10.64-4.135-14.775c-10.565,9.02-19.042,18.542-18.638,28.871  c0.243,6.304,2.406,8.862,7.227,8.68C166.459,196.737,174.117,183.8,173.745,174.285z"/>
<path fill="#FFFFFF" d="M196.354,148.516c0.759-4.104,12.768-4.058,12.129,0.547c-1.811,13.505-5.225,41.01-1.162,40.85  c7.723-0.299,16.089-20.771,20.964-42.028c0.268-1.128,1.254-1.775,2.384-1.519c1.131,0.264,1.778,1.259,1.518,2.384  c-5.32,22.801-14.225,47.774-26.417,48.247C191.842,197.535,193.124,167.569,196.354,148.516z"/>
<path fill="#FFFFFF" d="M248.646,173.247c-0.377-7.729-0.877-13.601-2.062-21.735c-4.313,13.795-7.731,19.822-15.29,21.172  c-15.021,2.688-16.994-37.594-0.021-40.633c6.312-1.125,10.033,1.234,12.61,3.341c-1.521-8.532,8.881-9.84,9.861-4.335  c2.708,15.109,3.613,20.176,4.964,32.315c4.155-5.973,7.498-14.461,8.74-27.518c0.083-1.027,0.883-1.717,1.907-1.629  c1.021,0.092,1.714,0.885,1.624,1.911c-1.306,14.726-4.507,25.025-11.794,32.473c1.333,16.179,0.408,27.442-2.462,33.912  c-5.641,13.576-21.147,16.625-28.854,5.348C218.856,193.892,234.146,183.998,248.646,173.247z M245.138,142.415  c-2.152-3.838-6.141-7.158-10.051-6.459c-6.221,1.114-4.764,31.303,0.129,30.43C238.768,165.75,242.705,153.402,245.138,142.415z   M246.172,201.477c2.166-4.787,3.025-12.829,2.607-23.854c-12.929,8.188-24.8,19.758-17.858,28.328  C236.6,213.101,242.007,211.028,246.172,201.477z"/>
<path fill="#FFFFFF" d="M315.006,154.652c-3.17,9.159-3.62,17.936-12.565,19.466c-7.393,1.256-9.826-9.568-10.566-20.339  c-1.948-23.332-1.925-32.125-5.623-31.499c-4.76,0.812-6.233,24.391-7.085,32.307c-0.303,3.18-9.444,4.566-9.858,1.174l-3.62-24.732  c-0.603-3.533,9.109-6.032,9.869-1.6l1.557,10.639c1.728-11.198,3.17-21.584,12.037-23.093c10.104-1.724,11.164,11.953,11.95,25.002  c0.666,9.858,2.136,25.413,4.106,25.074c3.197-0.544,4.152-6.369,6.362-12.743"/>
<path fill="#FFFFFF" d="M219.279,109.844c-0.175-4.463,3.97-7.918,9.391-8.122c5.229-0.202,9.818,2.907,9.992,7.368  c0.17,4.454-4.157,7.928-9.395,8.127C223.851,117.429,219.454,114.296,219.279,109.844z"/>
</svg>